<?xml version="1.0" encoding="utf-8"?>
<!-- Generator: Adobe Illustrator 17.0.1, SVG Export Plug-In . SVG Version: 6.00 Build 0)  -->
<!DOCTYPE svg PUBLIC "-//W3C//DTD SVG 1.1//EN" "http://www.w3.org/Graphics/SVG/1.1/DTD/svg11.dtd">
<svg version="1.1" xmlns="http://www.w3.org/2000/svg" xmlns:xlink="http://www.w3.org/1999/xlink" x="0px" y="0px" width="80px"
	 height="80px" viewBox="0 0 140 140" enable-background="new 0 0 140 140" xml:space="preserve">
<g id="HP">
	<g>
		<path fill="#59843B" d="M23.621,37.715c4.176,9.713,11.226,19.321,21.092,23.461c1.126,0.469,2.405,0.821,3.719,1.114
			c2.628-3.918,5.642-7.097,9.173-9.701c3.038-2.229,6.217-3.977,9.49-5.349c-0.938-0.657-1.924-1.255-2.956-1.795
			c-4.106-2.147-8.552-4.035-12.88-6.065c4.071,1.103,8.739,1.513,12.634,2.933c2.428,0.892,4.669,2.123,6.757,3.59
			c6.229-2.123,12.74-3.144,19.238-3.918c-5.267-8.751-16.505-15.778-24.975-18.957c-8.845-3.32-18.863-3.73-28.705-4.751
			c-6.03-0.622-12.587-2.874-17.385-5.502c-1.091-0.598-2.252,0.399-1.877,1.607C19.304,21.926,20.5,30.466,23.621,37.715z"/>
		<path fill="#59843B" d="M127.613,36.566c-11.097,6.03-23.825,6.769-36.295,8.2c-6.088,0.704-12.118,1.572-17.854,3.308
			c-1.243,0.375-2.487,0.798-3.707,1.267c-3.625,1.384-7.121,3.202-10.417,5.631c-3.097,2.276-5.631,4.974-7.766,7.942
			c-3.402,4.739-5.772,10.194-7.719,15.86c-3.554,10.288-5.185,21.221-4.868,32.095c0.129,4.411,0.199,8.997,1.29,13.303
			c0.246,0.95,0.481,2.158,1.22,2.862c0.962,0.927,2.686-0.023,2.299-1.372c-2.792-9.514-1.056-20.634,2.804-29.726
			c4.434-10.452,12.998-16.669,23.461-20.458c2.78-1.009,5.619-1.889,8.505-2.722c0.059-0.023,0.117-0.023,0.176-0.023
			c0.575,0,0.821,0.845,0.223,1.114c-3.402,1.537-6.78,3.085-9.995,4.763c-15.743,8.212-22.617,27.333-16.716,27.333
			c0.481,0,1.044-0.129,1.689-0.399c9.103-3.766,19.919-3.801,29.925-5.654c3.519-0.645,6.945-1.525,10.159-2.862
			c12.763-5.326,21.89-15.743,27.321-28.271c4.047-9.349,5.619-20.388,8.681-30.101c0.399-1.243-0.481-2.311-1.56-2.311
			C128.2,36.331,127.907,36.402,127.613,36.566z"/>
	</g>
</g>
<g id="base_x5F_layer">
</g>
</svg>
