<?xml version="1.0" encoding="utf-8"?>
<!-- Generator: Adobe Illustrator 17.0.1, SVG Export Plug-In . SVG Version: 6.00 Build 0)  -->
<!DOCTYPE svg PUBLIC "-//W3C//DTD SVG 1.1//EN" "http://www.w3.org/Graphics/SVG/1.1/DTD/svg11.dtd">
<svg version="1.1" xmlns="http://www.w3.org/2000/svg" xmlns:xlink="http://www.w3.org/1999/xlink" x="0px" y="0px"
	 width="102.671px" height="64.796px" viewBox="0 0 102.671 64.796" enable-background="new 0 0 102.671 64.796"
	 xml:space="preserve">
<g id="HP">
	<g>
		<g>
			<path fill-rule="evenodd" clip-rule="evenodd" fill="#59843B" d="M58.464,28.05c7.839,16.03,13.362,32.242,31.136,35.107
				c4.702-1.53,9.054-4.01,13.071-6.898c-7.973-0.255-15.775-1.845-22.361-6.748c-7.448-5.542-12.668-14.884-17.236-22.801
				C56.376,15.104,46.614,5.08,33.376,1.434c-0.937-0.258-1.875-0.476-2.812-0.662C45.115,3.803,52.345,15.543,58.464,28.05z"/>
			<path fill-rule="evenodd" clip-rule="evenodd" fill="#59843B" d="M53.357,30.142c-9.595-20.11-19.452-27.65-41.681-28.777
				C7.674,2.343,3.763,3.804,0,5.622c2.324-0.225,4.6-0.269,7.078,0.083c5.371,0.766,10.385,3.201,14.932,6.066l0.056,0.037
				l0.051,0.042c7.508,5.834,12.562,13.449,17.377,21.502c4.297,7.184,8.538,15.044,14.523,20.977c2.264,2.248,4.76,4.19,7.55,5.746
				c8.501,4.347,17.411,6.125,26.736,3.482c0.411-0.117,0.819-0.243,1.225-0.374C68.676,64.337,61.947,48.134,53.357,30.142z"/>
			<path fill-rule="evenodd" clip-rule="evenodd" fill="#59843B" d="M25.427,0.093c-3.309-0.223-6.6-0.041-9.844,0.48
				C19.162,0.055,22.432-0.09,25.427,0.093z"/>
			<path fill-rule="evenodd" clip-rule="evenodd" fill="#59843B" d="M30.097,0.679c0.038,0.007,0.076,0.014,0.114,0.021
				C30.173,0.693,30.135,0.686,30.097,0.679z"/>
			<path fill-rule="evenodd" clip-rule="evenodd" fill="#59843B" d="M25.514,0.099c0.194,0.012,0.385,0.028,0.576,0.043
				C25.898,0.126,25.706,0.112,25.514,0.099z"/>
		</g>
	</g>
</g>
<g id="base_x5F_layer">
</g>
</svg>
