<?xml version="1.0" encoding="utf-8"?>
<!-- Generator: Adobe Illustrator 17.0.1, SVG Export Plug-In . SVG Version: 6.00 Build 0)  -->
<!DOCTYPE svg PUBLIC "-//W3C//DTD SVG 1.1//EN" "http://www.w3.org/Graphics/SVG/1.1/DTD/svg11.dtd">
<svg version="1.1" xmlns="http://www.w3.org/2000/svg" xmlns:xlink="http://www.w3.org/1999/xlink" x="0px" y="0px" width="80px"
	 height="80px" viewBox="0 0 140 140" enable-background="new 0 0 140 140" xml:space="preserve">
<g id="HP">
	<g>
		<g>
			<path fill="#59843B" d="M22.913,56.401c0,0,3.762-4.849,1.329-11.583c-2.441-6.73-8.127-9.286-8.127-9.286
				s-4.254,5.779-1.877,12.338C16.612,54.435,22.913,56.401,22.913,56.401z"/>
			<path fill="#59843B" d="M33.353,59.844c0,0,6.577-0.526,10.343-6.407c3.766-5.876,0.887-12.449,0.887-12.449
				s-6.106,1.24-9.973,7.273C30.746,54.29,33.353,59.844,33.353,59.844z"/>
			<path fill="#59843B" d="M34.02,67.614c-3.044,6.483,0.263,11.651,0.263,11.651s6.458-1.384,9.422-7.698
				c2.959-6.322-0.752-12.462-0.752-12.462S37.064,61.13,34.02,67.614z"/>
			<path fill="#59843B" d="M48.884,72.836c0,0-5.677,2.573-8.097,9.311c-2.42,6.742,1.354,11.574,1.354,11.574
				s6.292-1.983,8.653-8.551C53.152,78.606,48.884,72.836,48.884,72.836z"/>
			<path fill="#59843B" d="M53.614,108.297c0,0,5.46-3.711,5.83-10.678c0.365-6.972-5.388-11.264-5.388-11.264
				s-4.696,4.101-5.074,11.251C48.609,104.752,53.614,108.297,53.614,108.297z"/>
			<path fill="#59843B" d="M31.298,43.425c0,0,5.821-1.945,7.528-8.895c1.711-6.95-1.596-12.232-1.596-12.232
				s-6.742,2.446-8.411,9.226C27.154,38.301,31.298,43.425,31.298,43.425z"/>
			<path fill="#59843B" d="M22.908,71.18c0,0,2.161-5.745-2.148-11.455c-4.318-5.715-10.5-6.483-10.5-6.483
				s-2.361,6.776,1.843,12.347C16.306,71.163,22.908,71.18,22.908,71.18z"/>
			<path fill="#59843B" d="M27.732,86.342c0,0,0.828-6.08-4.641-10.691c-5.477-4.615-11.676-3.987-11.676-3.987
				s-0.798,7.133,4.535,11.629C21.291,87.786,27.732,86.342,27.732,86.342z"/>
			<path fill="#59843B" d="M35.077,98.872c0,0-1.04-6.046-7.655-8.785c-6.619-2.743-12.334-0.267-12.334-0.267
				s1.401,7.04,7.846,9.714C29.379,102.2,35.077,98.872,35.077,98.872z"/>
			<path fill="#59843B" d="M38.287,104.077c-6.895-1.928-12.279,1.21-12.279,1.21s2.229,6.823,8.946,8.704
				c6.725,1.881,11.982-2.11,11.982-2.11S45.182,106.005,38.287,104.077z"/>
			<path fill="#59843B" d="M32.016,47.569l-3.065-1.507c-0.161,0.335-15.93,33.831,28.379,71.708l2.216-2.598
				C17.359,79.112,31.396,48.839,32.016,47.569z"/>
		</g>
		<g>
			<path fill="#59843B" d="M118.075,56.337c0,0-3.766-4.849-1.329-11.578c2.433-6.734,8.122-9.29,8.122-9.29
				s4.25,5.774,1.872,12.338C124.371,54.371,118.075,56.337,118.075,56.337z"/>
			<path fill="#59843B" d="M107.634,59.78c0,0-6.577-0.531-10.343-6.407c-3.766-5.876-0.887-12.449-0.887-12.449
				s6.106,1.24,9.973,7.269C110.237,54.227,107.634,59.78,107.634,59.78z"/>
			<path fill="#59843B" d="M106.968,67.546c3.044,6.483-0.263,11.655-0.263,11.655s-6.458-1.384-9.422-7.698
				c-2.959-6.322,0.747-12.462,0.747-12.462S103.923,61.067,106.968,67.546z"/>
			<path fill="#59843B" d="M92.103,72.773c0,0,5.672,2.569,8.097,9.311c2.42,6.742-1.359,11.574-1.359,11.574
				s-6.292-1.983-8.649-8.551C87.832,78.538,92.103,72.773,92.103,72.773z"/>
			<path fill="#59843B" d="M87.365,108.23c0,0-5.456-3.711-5.825-10.683c-0.365-6.972,5.388-11.264,5.388-11.264
				s4.692,4.097,5.07,11.251C92.375,104.688,87.365,108.23,87.365,108.23z"/>
			<path fill="#59843B" d="M109.681,43.362c0,0-5.817-1.945-7.524-8.895c-1.711-6.95,1.601-12.237,1.601-12.237
				s6.742,2.446,8.407,9.23C113.833,38.233,109.681,43.362,109.681,43.362z"/>
			<path fill="#59843B" d="M118.079,71.117c0,0-2.161-5.745,2.144-11.455c4.318-5.715,10.504-6.483,10.504-6.483
				s2.361,6.776-1.843,12.347C124.677,71.1,118.079,71.117,118.079,71.117z"/>
			<path fill="#59843B" d="M113.251,86.274c0,0-0.832-6.08,4.641-10.695c5.477-4.615,11.676-3.987,11.676-3.987
				s0.798,7.133-4.539,11.629C119.692,87.718,113.251,86.274,113.251,86.274z"/>
			<path fill="#59843B" d="M105.906,98.808c0,0,1.044-6.046,7.66-8.789c6.619-2.743,12.334-0.267,12.334-0.267
				s-1.401,7.04-7.846,9.71C111.604,102.137,105.906,98.808,105.906,98.808z"/>
			<path fill="#59843B" d="M102.696,104.013c6.895-1.928,12.283,1.21,12.283,1.21s-2.229,6.819-8.95,8.704
				c-6.721,1.877-11.978-2.11-11.978-2.11S95.805,105.941,102.696,104.013z"/>
			<path fill="#59843B" d="M108.967,47.506l3.07-1.507c0.161,0.335,15.93,33.831-28.379,71.708l-2.216-2.598
				C123.624,79.048,109.587,48.771,108.967,47.506z"/>
		</g>
	</g>
</g>
<g id="base_x5F_layer">
</g>
</svg>
