<?xml version="1.0" encoding="utf-8"?>
<!-- Generator: Adobe Illustrator 17.0.1, SVG Export Plug-In . SVG Version: 6.00 Build 0)  -->
<!DOCTYPE svg PUBLIC "-//W3C//DTD SVG 1.1//EN" "http://www.w3.org/Graphics/SVG/1.1/DTD/svg11.dtd">
<svg version="1.1" xmlns="http://www.w3.org/2000/svg" xmlns:xlink="http://www.w3.org/1999/xlink" x="0px" y="0px"
	 width="121.788px" height="95.54px" viewBox="0 0 121.788 95.54" enable-background="new 0 0 121.788 95.54" xml:space="preserve">
<g id="HP">
	<g>
		<g>
			<g>
				<path fill="#59843B" d="M13.313,34.171c0,0,3.762-4.849,1.329-11.583c-2.441-6.73-8.127-9.286-8.127-9.286
					s-4.254,5.779-1.877,12.338C7.012,32.205,13.313,34.171,13.313,34.171z"/>
				<path fill="#59843B" d="M23.754,37.614c0,0,6.577-0.526,10.343-6.407c3.766-5.876,0.887-12.449,0.887-12.449
					s-6.106,1.24-9.973,7.273C21.147,32.06,23.754,37.614,23.754,37.614z"/>
				<path fill="#59843B" d="M24.42,45.384c-3.044,6.483,0.263,11.651,0.263,11.651s6.458-1.384,9.422-7.698
					c2.959-6.322-0.752-12.462-0.752-12.462S27.465,38.9,24.42,45.384z"/>
				<path fill="#59843B" d="M39.285,50.606c0,0-5.677,2.573-8.097,9.311c-2.42,6.742,1.354,11.574,1.354,11.574
					s6.292-1.983,8.653-8.551C43.552,56.376,39.285,50.606,39.285,50.606z"/>
				<path fill="#59843B" d="M44.015,86.067c0,0,5.46-3.711,5.83-10.678c0.365-6.972-5.388-11.264-5.388-11.264
					s-4.696,4.101-5.074,11.251C39.009,82.522,44.015,86.067,44.015,86.067z"/>
				<path fill="#59843B" d="M21.699,21.195c0,0,5.821-1.945,7.528-8.895C30.938,5.35,27.63,0.068,27.63,0.068
					s-6.742,2.446-8.411,9.226C17.555,16.07,21.699,21.195,21.699,21.195z"/>
				<path fill="#59843B" d="M13.309,48.95c0,0,2.161-5.745-2.148-11.455c-4.318-5.715-10.5-6.483-10.5-6.483
					S-1.7,37.788,2.503,43.358C6.707,48.933,13.309,48.95,13.309,48.95z"/>
				<path fill="#59843B" d="M18.132,64.112c0,0,0.828-6.08-4.641-10.691c-5.477-4.615-11.676-3.987-11.676-3.987
					S1.017,56.567,6.35,61.064C11.691,65.556,18.132,64.112,18.132,64.112z"/>
				<path fill="#59843B" d="M25.478,76.642c0,0-1.04-6.046-7.655-8.785C11.203,65.114,5.488,67.59,5.488,67.59
					s1.401,7.04,7.846,9.714C19.78,79.97,25.478,76.642,25.478,76.642z"/>
				<path fill="#59843B" d="M28.687,81.847c-6.895-1.928-12.279,1.21-12.279,1.21s2.229,6.823,8.946,8.704
					c6.725,1.881,11.982-2.11,11.982-2.11S35.583,83.775,28.687,81.847z"/>
				<path fill="#59843B" d="M22.416,25.339l-3.065-1.507C19.189,24.167,3.42,57.663,47.73,95.54l2.216-2.598
					C7.76,56.881,21.796,26.609,22.416,25.339z"/>
			</g>
			<g>
				<path fill="#59843B" d="M108.475,34.107c0,0-3.766-4.849-1.329-11.578c2.433-6.734,8.122-9.29,8.122-9.29
					s4.25,5.774,1.872,12.338C114.772,32.141,108.475,34.107,108.475,34.107z"/>
				<path fill="#59843B" d="M98.035,37.55c0,0-6.577-0.531-10.343-6.407s-0.887-12.449-0.887-12.449s6.106,1.24,9.973,7.269
					C100.637,31.997,98.035,37.55,98.035,37.55z"/>
				<path fill="#59843B" d="M97.368,45.316c3.044,6.483-0.263,11.655-0.263,11.655s-6.458-1.384-9.422-7.698
					c-2.959-6.322,0.747-12.462,0.747-12.462S94.324,38.837,97.368,45.316z"/>
				<path fill="#59843B" d="M82.503,50.542c0,0,5.672,2.569,8.097,9.311c2.42,6.742-1.359,11.574-1.359,11.574
					s-6.292-1.983-8.649-8.551C78.232,56.308,82.503,50.542,82.503,50.542z"/>
				<path fill="#59843B" d="M77.765,85.999c0,0-5.456-3.711-5.825-10.683c-0.365-6.972,5.388-11.264,5.388-11.264
					s4.692,4.097,5.07,11.251C82.775,82.458,77.765,85.999,77.765,85.999z"/>
				<path fill="#59843B" d="M100.081,21.132c0,0-5.817-1.945-7.524-8.895C90.846,5.286,94.158,0,94.158,0s6.742,2.446,8.407,9.23
					C104.234,16.003,100.081,21.132,100.081,21.132z"/>
				<path fill="#59843B" d="M108.479,48.887c0,0-2.161-5.745,2.144-11.455c4.318-5.715,10.504-6.483,10.504-6.483
					s2.361,6.776-1.843,12.347C115.077,48.87,108.479,48.887,108.479,48.887z"/>
				<path fill="#59843B" d="M103.652,64.044c0,0-0.832-6.08,4.641-10.695c5.477-4.615,11.676-3.987,11.676-3.987
					s0.798,7.133-4.539,11.629C110.093,65.488,103.652,64.044,103.652,64.044z"/>
				<path fill="#59843B" d="M96.307,76.578c0,0,1.044-6.046,7.66-8.789c6.619-2.743,12.334-0.267,12.334-0.267
					s-1.401,7.04-7.846,9.71C102.005,79.907,96.307,76.578,96.307,76.578z"/>
				<path fill="#59843B" d="M93.097,81.783c6.895-1.928,12.283,1.21,12.283,1.21s-2.229,6.819-8.95,8.704
					c-6.721,1.877-11.978-2.11-11.978-2.11S86.206,83.711,93.097,81.783z"/>
				<path fill="#59843B" d="M99.368,25.275l3.07-1.507c0.161,0.335,15.93,33.831-28.379,71.708l-2.216-2.598
					C114.025,56.818,99.988,26.541,99.368,25.275z"/>
			</g>
		</g>
		<g>
			<path fill="#59843B" d="M53.392,43.745v-1.708c4.019-0.302,4.455-1.038,4.455-4.521V19.932c0-2.579-0.201-2.881-2.144-3.015
				l-2.68-0.134v-1.474c3.182-0.502,6.833-1.373,11.354-2.546v24.752c0,3.349,0.335,4.22,4.388,4.521v1.708H53.392z"/>
		</g>
	</g>
</g>
<g id="base_x5F_layer">
</g>
</svg>
