<?xml version="1.0" encoding="utf-8"?>
<!-- Generator: Adobe Illustrator 17.0.1, SVG Export Plug-In . SVG Version: 6.00 Build 0)  -->
<!DOCTYPE svg PUBLIC "-//W3C//DTD SVG 1.1//EN" "http://www.w3.org/Graphics/SVG/1.1/DTD/svg11.dtd">
<svg version="1.1" xmlns="http://www.w3.org/2000/svg" xmlns:xlink="http://www.w3.org/1999/xlink" x="0px" y="0px" width="80px"
	 height="80px" viewBox="0 0 140 140" enable-background="new 0 0 140 140" xml:space="preserve">
<g id="HP">
	<g>
		<g>
			<path fill-rule="evenodd" clip-rule="evenodd" fill="#59843B" d="M78.777,65.285c7.839,16.03,13.362,32.242,31.136,35.107
				c4.702-1.53,9.054-4.01,13.071-6.898c-7.973-0.255-15.775-1.845-22.361-6.748c-7.447-5.542-12.668-14.884-17.236-22.801
				c-6.698-11.605-16.46-21.629-29.698-25.276c-0.937-0.258-1.875-0.476-2.812-0.662C65.428,41.039,72.658,52.779,78.777,65.285z"/>
			<path fill-rule="evenodd" clip-rule="evenodd" fill="#59843B" d="M73.67,67.378c-9.595-20.11-19.452-27.65-41.681-28.777
				c-4.003,0.978-7.914,2.439-11.677,4.257c2.324-0.225,4.6-0.269,7.078,0.083c5.371,0.766,10.385,3.201,14.932,6.066l0.056,0.037
				l0.051,0.042c7.508,5.834,12.562,13.449,17.377,21.502c4.297,7.184,8.538,15.044,14.523,20.977c2.264,2.248,4.76,4.19,7.55,5.746
				c8.501,4.347,17.411,6.125,26.736,3.482c0.411-0.117,0.819-0.243,1.225-0.374C88.989,101.572,82.26,85.37,73.67,67.378z"/>
			<path fill-rule="evenodd" clip-rule="evenodd" fill="#59843B" d="M45.74,37.329c-3.309-0.223-6.6-0.041-9.844,0.48
				C39.475,37.291,42.745,37.146,45.74,37.329z"/>
			<path fill-rule="evenodd" clip-rule="evenodd" fill="#59843B" d="M50.41,37.915c0.038,0.007,0.076,0.014,0.114,0.021
				C50.486,37.929,50.448,37.922,50.41,37.915z"/>
			<path fill-rule="evenodd" clip-rule="evenodd" fill="#59843B" d="M45.827,37.334c0.194,0.012,0.385,0.028,0.576,0.043
				C46.211,37.362,46.019,37.348,45.827,37.334z"/>
		</g>
	</g>
</g>
<g id="base_x5F_layer">
</g>
</svg>
