<?xml version="1.0" encoding="utf-8"?>
<!-- Generator: Adobe Illustrator 17.0.1, SVG Export Plug-In . SVG Version: 6.00 Build 0)  -->
<!DOCTYPE svg PUBLIC "-//W3C//DTD SVG 1.1//EN" "http://www.w3.org/Graphics/SVG/1.1/DTD/svg11.dtd">
<svg version="1.1" xmlns="http://www.w3.org/2000/svg" xmlns:xlink="http://www.w3.org/1999/xlink" x="0px" y="0px"
	 width="672.758px" height="982.041px" viewBox="0 0 672.758 982.041" enable-background="new 0 0 672.758 982.041"
	 xml:space="preserve">
<g id="HP">
	<g>
		<path fill="#F2F2F2" d="M359.431,647.583c11.122,0,20.221-9.099,20.221-20.221v-9.403c0-11.122-9.1-20.221-20.221-20.221H21.738
			c-11.122,0-20.221,9.1-20.221,20.221v9.403c0,11.122,9.1,20.221,20.221,20.221H359.431z"/>
		<path fill="#F2F2F2" d="M571.45,230.724c-31.747-31.747-68.651-56.619-109.902-74.111l-0.202-0.101
			c-13.447-5.662-29.017-0.809-36.904,11.425l-23.457,36.499c-5.864-2.022-12.133-3.235-18.604-3.741
			c-1.921-0.101-3.943-0.202-5.965-0.202c-5.46,0-10.818,0.607-15.975,1.719l41.352-64.506l12.84-20.019
			c8.998-14.054,4.954-32.859-9.201-41.858L294.926,4.752C289.87,1.517,284.209,0,278.547,0c-10.009,0-19.817,4.954-25.58,13.953
			L60.765,313.63c-8.998,14.054-4.954,32.859,9.201,41.858l20.929,13.447l-9.504,14.863l-9.504,14.863l-5.965,9.302
			c-8.998,14.054-4.954,32.859,9.201,41.858l17.997,11.526c14.054,8.998,32.859,4.954,41.858-9.201l5.965-9.302l9.504-14.863
			l9.504-14.863l20.626,13.245c5.055,3.235,10.717,4.752,16.379,4.752c10.009,0,19.817-4.954,25.58-13.953l78.863-123.046
			c1.618,7.28,4.246,14.155,7.886,20.524c3.134,5.561,6.875,10.717,11.223,15.267c14.559,15.368,35.286,24.872,58.237,24.164
			c40.543-1.213,73.504-34.174,74.616-74.717c0.303-9.908-1.314-19.412-4.449-28.209c21.131,11.526,40.746,26.186,58.237,43.678
			c48.126,48.126,74.616,112.025,74.616,180.07s-26.49,131.943-74.616,180.07c-29.927,29.927-65.921,51.463-105.251,63.494
			c-2.932,0.91-5.965,1.314-8.998,1.314h-99.488c-16.784,0-30.332-13.548-30.332-30.332v-6.774H118.193v37.106v47.924v51.463
			c3.134-0.202,6.37-0.303,9.504-0.303h199.28h36.297h173.194h23.861h2.325c34.578-6.167,60.967-36.398,60.967-72.796
			c0-22.445-10.009-42.566-25.782-56.114c19.412-24.468,35.488-51.362,47.722-80.278c17.997-42.667,27.198-87.962,27.198-134.572
			s-9.1-91.905-27.198-134.572C628.07,299.374,603.198,262.37,571.45,230.724z M376.417,305.036
			c-12.84,0-23.558-8.695-26.692-20.626c-0.607-2.224-0.91-4.651-0.91-7.077c0-13.649,9.908-24.973,22.951-27.197
			c1.517-0.303,3.134-0.404,4.752-0.404c15.267,0,27.602,12.335,27.602,27.602S391.684,305.036,376.417,305.036z M560.329,769.618
			c-3.235,1.517-6.875,2.325-10.717,2.325c-10.212,0-19.008-5.864-23.153-14.458c-1.719-3.438-2.629-7.381-2.629-11.425
			c0-14.256,11.526-25.883,25.883-25.883c3.842,0,7.482,0.809,10.717,2.325c1.719,0.809,3.438,1.82,4.954,2.932
			c6.167,4.752,10.212,12.133,10.212,20.524C575.495,756.575,569.226,765.574,560.329,769.618z"/>
		<path fill="#F2F2F2" d="M118.193,854.648C52.07,859.501,0,914.705,0,982.041h529.997c16.784,0,30.332-13.548,30.332-30.332
			v-48.632v-48.733H127.697C124.461,854.345,121.327,854.446,118.193,854.648z"/>
	</g>
</g>
<g id="base_x5F_layer">
</g>
</svg>
