<?xml version="1.0" encoding="utf-8"?>
<!-- Generator: Adobe Illustrator 17.0.1, SVG Export Plug-In . SVG Version: 6.00 Build 0)  -->
<!DOCTYPE svg PUBLIC "-//W3C//DTD SVG 1.1//EN" "http://www.w3.org/Graphics/SVG/1.1/DTD/svg11.dtd">
<svg version="1.1" xmlns="http://www.w3.org/2000/svg" xmlns:xlink="http://www.w3.org/1999/xlink" x="0px" y="0px"
	 width="48.263px" height="30.459px" viewBox="0 0 48.263 30.459" enable-background="new 0 0 48.263 30.459" xml:space="preserve">
<g id="HP">
	<g opacity="0.6">
		<g>
			<path fill-rule="evenodd" clip-rule="evenodd" fill="#839F58" d="M27.483,13.186c3.685,7.535,6.281,15.156,14.636,16.503
				c2.21-0.719,4.256-1.885,6.144-3.243c-3.748-0.12-7.416-0.867-10.512-3.172c-3.501-2.605-5.955-6.996-8.102-10.718
				C26.501,7.1,21.912,2.388,15.689,0.674c-0.441-0.121-0.881-0.224-1.322-0.311C21.208,1.788,24.606,7.307,27.483,13.186z"/>
			<path fill-rule="evenodd" clip-rule="evenodd" fill="#839F58" d="M25.082,14.169C20.572,4.716,15.938,1.172,5.489,0.642
				C3.607,1.102,1.769,1.788,0,2.643c1.093-0.106,2.162-0.126,3.327,0.039c2.525,0.36,4.882,1.505,7.019,2.851l0.026,0.017
				l0.024,0.02c3.529,2.742,5.905,6.322,8.169,10.108c2.02,3.377,4.013,7.072,6.827,9.861c1.064,1.057,2.237,1.97,3.549,2.701
				c3.996,2.044,8.185,2.879,12.568,1.637c0.193-0.055,0.385-0.114,0.576-0.176C32.283,30.243,29.12,22.627,25.082,14.169z"/>
			<path fill-rule="evenodd" clip-rule="evenodd" fill="#839F58" d="M11.953,0.044c-1.555-0.105-3.102-0.019-4.627,0.226
				C9.008,0.026,10.545-0.042,11.953,0.044z"/>
			<path fill-rule="evenodd" clip-rule="evenodd" fill="#839F58" d="M14.148,0.319c0.018,0.003,0.036,0.007,0.054,0.01
				C14.184,0.326,14.166,0.323,14.148,0.319z"/>
			<path fill-rule="evenodd" clip-rule="evenodd" fill="#839F58" d="M11.994,0.046c0.091,0.006,0.181,0.013,0.271,0.02
				C12.174,0.059,12.084,0.053,11.994,0.046z"/>
		</g>
	</g>
</g>
<g id="base_x5F_layer">
</g>
</svg>
