<?xml version="1.0" encoding="utf-8"?>
<!-- Generator: Adobe Illustrator 17.0.1, SVG Export Plug-In . SVG Version: 6.00 Build 0)  -->
<!DOCTYPE svg PUBLIC "-//W3C//DTD SVG 1.1//EN" "http://www.w3.org/Graphics/SVG/1.1/DTD/svg11.dtd">
<svg version="1.1" xmlns="http://www.w3.org/2000/svg" xmlns:xlink="http://www.w3.org/1999/xlink" x="0px" y="0px"
	 width="273.284px" height="126.475px" viewBox="0 0 273.284 126.475" enable-background="new 0 0 273.284 126.475"
	 xml:space="preserve">
<g id="HP">
	<g>
		<g>
			<path fill-rule="evenodd" clip-rule="evenodd" fill="#E6E6E6" d="M85.954,40.254c-2.911,0.164-5.499,1.172-7.772,3.002
				c-2.395,1.93-4.166,4.366-5.382,7.19c-1.261,2.926-1.912,5.984-1.912,9.169c0,0.579,0.002,1.201,0.068,1.777l0.001,0.012v0.011
				c0.255,3.065,0.954,6.067,2.223,8.874c1.165,2.563,2.725,4.881,4.737,6.856c1.913,1.871,4.108,3.354,6.58,4.379
				c2.374,0.984,4.868,1.504,7.442,1.504c0.586,0,1.209-0.002,1.797-0.067c2.643-0.275,4.913-1.445,6.867-3.227
				c2.224-2.042,3.829-4.567,4.944-7.363c1.174-2.909,1.798-5.954,1.798-9.09c0-0.622,0.003-1.307-0.068-1.933
				c-0.388-4.035-1.614-7.829-3.902-11.187c-2.104-3.072-4.749-5.606-8.032-7.375C92.42,41.23,89.283,40.257,85.954,40.254
				L85.954,40.254z M15.619,83.924c1.013-0.087,2.318-0.871,3.141-1.421c1.425-0.941,2.623-2.139,3.61-3.532
				c0.935-1.304,1.483-2.745,1.489-4.354c-0.092-1.8-0.512-3.517-1.304-5.136c-0.806-1.636-1.968-3.015-3.398-4.149
				c-1.482-1.199-3.138-2.079-4.958-2.625l-1.769-0.494v21.825L15.619,83.924L15.619,83.924z M21.568,48.995
				c-0.07-1.557-0.542-2.985-1.425-4.272c-0.913-1.329-2.058-2.403-3.454-3.219c-1.202-0.709-2.56-1.264-3.967-1.349l-0.29-0.018
				V58.82l2.979-0.642c1.186-0.29,2.195-0.938,3.063-1.777c0.996-0.976,1.745-2.129,2.275-3.417
				C21.273,51.712,21.565,50.371,21.568,48.995L21.568,48.995z M25.771,60.206l1.695,1.396c1.974,1.637,3.99,3.567,5.377,5.736
				c1.347,2.071,1.923,4.493,2.06,6.935l0.001,0.024v0.024c0,3.265-0.983,6.21-3.027,8.761c-2.051,2.563-4.681,4.418-7.709,5.673
				c-3.079,1.262-6.295,1.931-9.623,1.931H0l0.593-1.183c0.15-0.3,0.29-0.611,0.434-0.916c0.118-0.266,0.276-0.576,0.366-0.846
				l0.005-0.017l0.006-0.017c0.3-0.79,0.455-1.657,0.543-2.496c0.077-0.753,0.152-1.545,0.152-2.303V40.686
				c-0.072-0.658-0.174-1.318-0.269-1.969c-0.102-0.643-0.224-1.367-0.436-1.985l-0.02-0.056l-0.01-0.058
				c-0.071-0.381-0.218-0.796-0.351-1.159l-0.007-0.017c-0.123-0.362-0.258-0.749-0.422-1.094L0.03,33.177h15.045
				c2.177,0,4.297,0.376,6.34,1.125c2.021,0.749,3.873,1.797,5.539,3.161c1.689,1.368,3.026,3.044,4.012,4.979
				c1.01,1.98,1.5,4.107,1.5,6.335c-0.024,1.88-0.436,3.699-1.424,5.31c-1.095,1.774-2.589,3.446-4.044,4.931l-0.015,0.017
				L25.771,60.206L25.771,60.206z M43.204,40.732c-0.034-0.782-0.142-1.595-0.247-2.376c-0.11-0.892-0.303-1.783-0.617-2.626
				c-0.087-0.234-0.2-0.464-0.305-0.683c-0.115-0.228-0.222-0.457-0.337-0.685l-0.591-1.184h7.488h0.792h7.488l-0.59,1.184
				c-0.114,0.228-0.222,0.457-0.337,0.685c-0.106,0.22-0.217,0.45-0.304,0.683c-0.315,0.844-0.508,1.734-0.618,2.626
				c-0.106,0.781-0.213,1.594-0.246,2.376V83.15c0,0.703,0.073,1.441,0.152,2.139c0.092,0.824,0.268,1.641,0.565,2.415l0.007,0.022
				c0.106,0.298,0.241,0.599,0.372,0.885l0.007,0.018c0.127,0.294,0.26,0.586,0.404,0.872l0.59,1.183h-7.488h-0.792h-7.488
				l0.591-1.183c0.142-0.287,0.276-0.579,0.403-0.872l0.007-0.018c0.131-0.287,0.266-0.587,0.37-0.885l0.01-0.022
				c0.298-0.774,0.473-1.591,0.565-2.415c0.078-0.699,0.152-1.436,0.152-2.139V40.732L43.204,40.732z M116.93,61.063
				c0,4.195-0.643,8.355-2.193,12.268c-1.401,3.527-3.379,6.752-6.038,9.474c-2.545,2.596-5.502,4.631-8.855,6.043
				c-3.314,1.392-6.785,2.116-10.379,2.116h-0.037l-0.04-0.004c-0.233-0.022-0.465-0.032-0.699-0.044
				c-0.29-0.016-0.585-0.011-0.875-0.011H87.79l-0.024-0.003c-4.978-0.291-9.723-1.614-13.921-4.352
				c-3.996-2.607-7.054-6.075-9.186-10.344c-2.245-4.489-3.288-9.333-3.428-14.334v-0.022c0-3.855,0.676-7.601,2.083-11.194
				c1.371-3.457,3.299-6.595,5.844-9.304c2.493-2.667,5.416-4.766,8.738-6.277c3.367-1.539,6.938-2.316,10.649-2.39
				c3.78,0,7.489,0.653,10.998,2.073c3.381,1.365,6.375,3.327,8.945,5.91c2.594,2.596,4.595,5.624,6.024,9.004
				c1.533,3.612,2.275,7.451,2.417,11.364v0.015V61.063z"/>
			<path fill-rule="evenodd" clip-rule="evenodd" fill="#E6E6E6" d="M2.169,87.999c-0.106,0.317-0.258,0.615-0.394,0.922
				l-0.008,0.014C1.62,89.246,1.48,89.56,1.324,89.867h13.221c3.219,0,6.337-0.647,9.311-1.868c2.896-1.2,5.417-2.974,7.384-5.428
				c1.928-2.408,2.846-5.175,2.846-8.251l0,0c-0.128-2.296-0.662-4.591-1.932-6.542c-1.346-2.104-3.294-3.958-5.208-5.545
				l-2.401-1.979l1.872-1.811c1.426-1.457,2.856-3.048,3.929-4.786c0.912-1.484,1.282-3.161,1.304-4.882
				c0-2.095-0.459-4.095-1.411-5.963c-0.934-1.83-2.203-3.421-3.801-4.718c-1.596-1.303-3.375-2.311-5.305-3.025
				c-1.95-0.715-3.981-1.074-6.057-1.074H1.324c0.182,0.382,0.323,0.781,0.455,1.173l0.004,0.01c0.153,0.419,0.304,0.85,0.387,1.29
				c0.231,0.681,0.357,1.411,0.47,2.126c0.096,0.671,0.197,1.335,0.271,2.003l0.006,0.044v42.267c0,0.797-0.075,1.595-0.158,2.388
				C2.666,86.21,2.497,87.136,2.169,87.999L2.169,87.999z M22.386,48.997c-0.003,1.482-0.317,2.928-0.881,4.299
				c-0.573,1.389-1.385,2.639-2.462,3.692c-0.976,0.941-2.111,1.661-3.436,1.986l-0.024,0.004l-3.969,0.854V39.268l1.158,0.071
				c1.541,0.095,3.012,0.683,4.33,1.459c1.495,0.874,2.736,2.036,3.716,3.464c0.969,1.41,1.492,2.987,1.567,4.697l0.001,0.018
				V48.997L22.386,48.997z M15.668,84.741l-4.054,0.146V61.135l2.818,0.787c1.922,0.576,3.679,1.511,5.236,2.77
				c1.523,1.208,2.763,2.683,3.623,4.43c0.84,1.716,1.289,3.547,1.385,5.453l0.001,0.022v0.021c-0.006,1.784-0.608,3.387-1.64,4.825
				c-1.044,1.474-2.316,2.745-3.823,3.741c-0.977,0.652-2.344,1.453-3.525,1.555L15.668,84.741L15.668,84.741z M42.431,89.867
				h13.122c-0.15-0.299-0.289-0.602-0.417-0.906L55.13,88.95c-0.143-0.312-0.283-0.624-0.395-0.944l-0.003-0.011
				c-0.324-0.839-0.515-1.72-0.614-2.614c-0.083-0.74-0.157-1.486-0.157-2.231V40.714v-0.018c0.036-0.82,0.143-1.633,0.252-2.443
				c0.118-0.957,0.327-1.906,0.664-2.81c0.097-0.257,0.216-0.507,0.338-0.76c0.112-0.228,0.224-0.459,0.338-0.687H42.431
				c0.113,0.228,0.223,0.459,0.341,0.693c0.118,0.247,0.238,0.497,0.334,0.754c0.337,0.904,0.545,1.853,0.662,2.806
				c0.11,0.814,0.218,1.627,0.253,2.447v0.018V83.15c0,0.745-0.072,1.491-0.156,2.231c-0.1,0.894-0.291,1.774-0.612,2.61L43.249,88
				c-0.114,0.326-0.253,0.637-0.395,0.946l-0.003,0.007C42.719,89.264,42.58,89.568,42.431,89.867L42.431,89.867z M116.112,61.062
				c-0.136-3.808-0.86-7.556-2.352-11.072c-1.386-3.279-3.332-6.227-5.851-8.746c-2.49-2.503-5.399-4.408-8.672-5.729
				c-3.408-1.381-7.015-2.014-10.678-2.014c-3.588,0.071-7.055,0.822-10.322,2.316c-3.218,1.466-6.065,3.508-8.48,6.092
				c-2.475,2.633-4.351,5.691-5.68,9.044c-1.368,3.491-2.028,7.145-2.028,10.885v0.011c0.137,4.877,1.152,9.61,3.342,13.989
				c2.067,4.134,5.028,7.498,8.902,10.024c4.077,2.658,8.691,3.94,13.523,4.223c0.306,0,0.611-0.003,0.916,0.011
				c0.246,0.014,0.491,0.025,0.736,0.049c3.481,0,6.852-0.703,10.059-2.05c3.247-1.37,6.123-3.348,8.589-5.863
				c2.579-2.642,4.502-5.779,5.862-9.203c1.51-3.814,2.135-7.878,2.135-11.967V61.062L116.112,61.062z M93.823,83.776
				c-0.624,0.069-1.255,0.072-1.884,0.072c-2.678,0-5.284-0.543-7.755-1.567c-2.568-1.064-4.854-2.608-6.841-4.55
				c-2.082-2.043-3.704-4.451-4.909-7.104c-1.306-2.891-2.029-5.986-2.291-9.137v-0.002l-0.001-0.004
				c-0.071-0.619-0.071-1.246-0.071-1.868c0-3.293,0.675-6.469,1.978-9.493c1.268-2.943,3.122-5.488,5.621-7.502
				c2.401-1.936,5.156-3.009,8.238-3.184h0.024h0.024c3.463,0.004,6.734,1.009,9.773,2.63c3.399,1.831,6.146,4.459,8.322,7.636
				c2.366,3.472,3.638,7.399,4.04,11.559c0.075,0.671,0.071,1.347,0.071,2.021c0,3.241-0.643,6.395-1.856,9.394
				c-1.158,2.909-2.835,5.538-5.151,7.663C99.073,82.238,96.642,83.484,93.823,83.776z"/>
			<path fill-rule="evenodd" clip-rule="evenodd" fill="#E6E6E6" d="M273.284,92.855c-4.794-0.153-9.484-1.109-13.444-4.057
				c-4.477-3.332-7.616-8.948-10.362-13.708c-4.027-6.977-9.896-13.004-17.854-15.196c-6.888-1.896-13.818-0.5-20.066,2.518
				c1.397-0.135,2.765-0.162,4.255,0.05c3.229,0.461,6.244,1.925,8.977,3.647l0.033,0.022l0.03,0.025
				c4.514,3.507,7.552,8.085,10.447,12.927c2.583,4.319,5.133,9.044,8.731,12.611c1.361,1.351,2.862,2.519,4.539,3.455
				c5.111,2.614,10.468,3.682,16.074,2.093C267.773,96.355,270.648,94.751,273.284,92.855z"/>
			<g>
				<path fill-rule="evenodd" clip-rule="evenodd" fill="#E6E6E6" d="M233.286,59.219c0.494-0.351,0.973-0.729,1.435-1.136
					c2.038-1.786,3.389-3.972,3.389-6.729c0-0.409-0.077-0.89-0.135-1.295c-0.359-2.035-1.098-4.061-2.537-5.587
					c-1.047-1.112-2.341-2.242-3.757-2.85c-1.811-0.778-3.786-1.406-5.665-1.994l-0.469-0.134v18.444
					c-3.157-0.027-6.436,0.519-9.793,1.655c-0.179,0.057-0.359,0.115-0.539,0.175V40.732c-0.034-0.753-0.142-1.537-0.246-2.289
					c-0.113-0.87-0.306-1.744-0.618-2.566l-0.024-0.062l-0.014-0.067c-0.042-0.209-0.134-0.42-0.227-0.605
					c-0.116-0.224-0.231-0.45-0.356-0.67l-0.695-1.215l14.311-0.081c2.439,0,4.845,0.441,7.165,1.186
					c2.368,0.77,4.611,1.841,6.665,3.254c1.974,1.364,3.645,3.056,4.961,5.062c1.275,1.956,2,4.097,2.026,6.44
					c0,2.757-0.444,5.541-1.663,8.035c-1.182,2.403-3.477,4.455-5.711,6.053C238.441,61.436,235.928,60.103,233.286,59.219
					L233.286,59.219z M225.548,68.13v14.978c0.065,0.655,0.138,1.312,0.213,1.972c0.083,0.835,0.262,1.662,0.499,2.46
					c0.111,0.361,0.249,0.713,0.404,1.061c0.134,0.312,0.269,0.625,0.407,0.934l0.511,1.15h-14.462l0.59-1.183
					c0.143-0.287,0.277-0.579,0.402-0.872l0.008-0.018c0.129-0.284,0.263-0.582,0.367-0.875c0.265-0.821,0.443-1.664,0.54-2.522
					c0.081-0.69,0.155-1.391,0.189-2.085V63.322C218.917,63.853,222.748,65.652,225.548,68.13z"/>
				<path fill-rule="evenodd" clip-rule="evenodd" fill="#E6E6E6" d="M160.737,40.737c-0.035-0.633-0.124-1.289-0.21-1.922
					c-0.089-0.728-0.231-1.467-0.461-2.165l-0.006-0.017l-0.004-0.018c-0.127-0.457-0.275-0.912-0.461-1.347l-0.008-0.02
					c-0.124-0.317-0.258-0.632-0.384-0.949l-0.448-1.12h13.907v1.636h-0.354c-0.149,0.332-0.299,0.763-0.398,1.033
					c-0.254,0.874-0.441,1.766-0.571,2.663c-0.099,0.743-0.202,1.493-0.27,2.24v27.49c0,2.827,0.455,5.707,1.776,8.232
					c1.048,1.992,2.461,3.776,4.394,4.966c1.648,1.002,3.439,1.629,5.375,1.677c1.643-0.001,3.252-0.291,4.8-0.856
					c1.567-0.568,2.961-1.421,4.188-2.546c1.274-1.18,2.214-2.605,2.887-4.199c0.744-1.809,1.048-3.733,1.048-5.681V40.754
					c-0.068-0.69-0.143-1.379-0.224-2.067c-0.1-0.845-0.278-1.681-0.542-2.485c-0.121-0.351-0.262-0.696-0.413-1.041
					c-0.112-0.27-0.234-0.539-0.363-0.799l-0.593-1.183h14.651l-0.7,1.224c-0.139,0.242-0.28,0.481-0.412,0.728l-0.007,0.015
					l-0.009,0.015c-0.133,0.224-0.268,0.478-0.341,0.73l-0.01,0.037l-0.015,0.038c-0.322,0.803-0.498,1.653-0.572,2.515
					c-0.064,0.737-0.117,1.495-0.117,2.234V83.09c0.109,0.742,0.232,1.485,0.362,2.23c0.127,0.773,0.278,1.56,0.489,2.316
					l0.008,0.029l0.004,0.025c0.057,0.246,0.198,0.574,0.29,0.813l0.005,0.015c0.13,0.363,0.27,0.725,0.393,1.091l0.359,1.076
					h-14.446l0.678-1.215c0.16-0.289,0.332-0.573,0.491-0.864l0.007-0.014l0.01-0.013c0.192-0.322,0.333-0.681,0.448-1.034
					c0.102-0.367,0.191-0.737,0.27-1.112l-1.382,0.762c-2.345,1.301-4.836,2.406-7.435,3.089c-2.447,0.656-4.966,0.969-7.5,0.969
					c-3.828-0.025-7.189-1.286-10.017-3.869c-2.894-2.654-4.87-5.98-6.143-9.672c-1.352-3.905-2.024-7.957-2.024-12.089V40.737z"/>
				<path fill-rule="evenodd" clip-rule="evenodd" fill="#E6E6E6" d="M122.574,83.104V40.715c0-0.78-0.055-1.572-0.118-2.347
					c-0.07-0.866-0.246-1.731-0.587-2.532l-0.01-0.021l-0.007-0.021c-0.088-0.242-0.21-0.467-0.337-0.682
					c-0.149-0.235-0.287-0.472-0.426-0.711l-0.697-1.225h34.188l-5.675,10.741l-0.675-0.255c-2.148-0.809-4.445-1.568-6.707-1.975
					l-0.023-0.004c-1.071-0.221-2.259-0.338-3.349-0.458c-1.281-0.14-2.575-0.283-3.848-0.485l-1.396-0.168v18.169
					c2.314-0.148,4.635-0.253,6.951-0.366c1.633-0.071,3.286-0.072,4.92-0.072c2.149,0,4.306,0.008,6.454,0.072l1.4,0.042
					L146.485,68.6l-0.657-0.284c-1.193-0.518-2.413-0.97-3.662-1.343c-1.284-0.387-2.595-0.682-3.921-0.892l-0.014-0.003
					l-0.013-0.001c-1.752-0.338-3.529-0.533-5.313-0.579V83.11c0.071,0.712,0.162,1.428,0.258,2.138
					c0.114,0.85,0.275,1.695,0.515,2.513c0.078,0.252,0.209,0.533,0.307,0.774c0.107,0.251,0.218,0.495,0.326,0.746
					c0.032,0.075,0.064,0.149,0.1,0.221l0.592,1.185h-14.528l0.592-1.185c0.13-0.26,0.238-0.579,0.335-0.853
					c0.102-0.28,0.205-0.573,0.281-0.862l0.008-0.029l0.009-0.029c0.212-0.608,0.362-1.254,0.475-1.891
					c0.113-0.604,0.225-1.219,0.294-1.827C122.505,83.708,122.54,83.405,122.574,83.104z"/>
				<path fill-rule="evenodd" clip-rule="evenodd" fill="#E6E6E6" d="M265.48,97.012c-10.729-1.698-14.052-11.463-18.773-21.116
					c-5.028-10.277-11.303-19.695-28.362-16.056c13.531,0.636,19.489,5.153,25.292,17.314
					C248.815,87.999,252.867,97.764,265.48,97.012z"/>
			</g>
		</g>
		<g>
			<path fill="#E6E6E6" d="M41.41,101.941c0,0.39-0.169,0.855-0.504,1.398c-0.404,0.664-1.053,1.383-1.948,2.155
				c-2.599,2.245-6.196,3.942-10.794,5.088c-0.918,1.161-1.532,1.99-1.845,2.487c-0.649,1.062-0.974,2.017-0.974,2.865
				c0,1.192,0.622,1.787,1.869,1.787c0.274,0,0.585-0.038,0.927-0.114c0.956-0.221,1.899-0.745,2.832-1.57
				c1.779-1.567,2.669-2.899,2.669-3.999c0-0.81-0.355-1.215-1.065-1.215c-0.811,0-1.711,0.5-2.704,1.501
				c-0.963,0.97-1.506,1.868-1.628,2.693c-0.029,0.238-0.045,0.718-0.045,1.445c0,0.161-0.106,0.24-0.321,0.24
				c-0.152,0-0.23-0.264-0.23-0.791c0-1.176,0.337-2.246,1.008-3.208c0.674-0.962,1.56-1.662,2.66-2.097
				c0.551-0.213,1.024-0.32,1.422-0.32c0.968,0,1.454,0.492,1.454,1.478c0,0.871-0.393,1.822-1.182,2.853
				c-0.61,0.803-1.363,1.547-2.256,2.235c-1.139,0.864-2.299,1.295-3.483,1.295c-0.857,0-1.557-0.213-2.098-0.641
				c-0.588-0.474-0.882-1.127-0.882-1.96c0-1.229,0.581-2.742,1.743-4.537c-0.56,0.076-1.083,0.114-1.571,0.114
				c-2.2,0-3.651-0.699-4.354-2.096c-0.244-0.473-0.366-0.97-0.366-1.49c0-0.473,0.09-0.962,0.273-1.466
				c0.574-1.582,1.74-2.758,3.497-3.529c1.42-0.627,3.097-0.94,5.029-0.94c1.026,0,1.923,0.046,2.694,0.137
				c0.337,0.039,0.506,0.103,0.506,0.195c0,0.077-0.097,0.17-0.287,0.281c-0.192,0.111-0.33,0.167-0.412,0.167
				c0.054,0-0.249-0.054-0.906-0.161c-0.612-0.091-1.257-0.138-1.937-0.138c-1.544,0-2.999,0.326-4.367,0.975
				c-1.566,0.749-2.615,1.765-3.149,3.048c-0.201,0.473-0.299,0.936-0.299,1.386c0,1.07,0.52,1.888,1.558,2.452
				c0.848,0.458,1.853,0.688,3.013,0.688c0.438,0,0.898-0.03,1.388-0.091c0.588-0.825,1.255-1.627,2.005-2.407
				c2.505-2.62,5.206-4.809,8.102-6.566c1.16-0.71,2.206-1.065,3.138-1.065c0.482,0,0.895,0.118,1.237,0.355
				C41.216,101.12,41.41,101.483,41.41,101.941z M40.665,101.963c0-0.733-0.382-1.098-1.146-1.098c-1.001,0-2.425,0.751-4.275,2.254
				c-1.237,1.008-2.475,2.174-3.712,3.502c-0.9,0.969-1.905,2.14-3.013,3.513c2.062-0.511,4.247-1.403,6.555-2.678
				c2.704-1.496,4.457-2.976,5.26-4.441C40.554,102.611,40.665,102.26,40.665,101.963z"/>
			<path fill="#E6E6E6" d="M44.609,114.329c0,0.261-0.38,0.794-1.137,1.598c-1.352,1.425-2.471,2.138-3.357,2.138
				c-0.534,0-0.802-0.322-0.802-0.964c0-0.697,0.809-1.906,2.43-3.628c0.19-0.176,0.45-0.456,0.778-0.838
				c0.183-0.261,0.276-0.506,0.276-0.735c0-0.237-0.126-0.356-0.38-0.356c-0.305,0-0.916,0.424-1.835,1.272
				c-0.45,0.381-1.108,0.969-1.973,1.763c-0.766,0.763-2.05,2.294-3.854,4.591c-1.155,1.574-2.934,3.901-5.341,6.98
				c-0.174,0.217-0.387,0.326-0.637,0.326c-0.312,0-0.554-0.03-0.73-0.091c-0.03-0.039-0.047-0.073-0.047-0.103
				c0-0.03,0.016-0.118,0.047-0.264c0.014-0.015,0.341-0.421,0.974-1.215c0.443-0.534,1.115-1.371,2.018-2.51l6.176-7.838
				c0.574-0.717,1.184-1.523,1.833-2.417l-0.011-0.012c-0.963,0.673-2.102,1.463-3.415,2.372l-0.276-0.217
				c1.338-1.154,2.765-2.277,4.286-3.37c0.176-0.107,0.432-0.282,0.768-0.526c0.161-0.13,0.256-0.195,0.287-0.195
				c0.169,0,0.251,0.142,0.251,0.424c0,0.176-0.377,0.718-1.128,1.627c-0.751,0.909-1.128,1.444-1.128,1.604
				c0,0.008,0.007,0.027,0.022,0.057l0.057,0.022c0.122-0.007,0.694-0.472,1.714-1.392c1.019-0.921,1.777-1.381,2.274-1.381
				c0.588,0,0.882,0.317,0.882,0.952c0,0.536-0.316,1.232-0.95,2.089c-0.33,0.444-0.922,1.133-1.775,2.066
				c-0.642,0.69-0.965,1.107-0.965,1.252c0,0.176,0.093,0.264,0.276,0.264c0.084,0,0.19-0.026,0.321-0.08
				c0.579-0.23,1.268-0.728,2.062-1.495c0.009-0.008,0.307-0.376,0.895-1.104c0.473-0.575,0.771-0.863,0.893-0.863
				C44.536,114.133,44.609,114.199,44.609,114.329z"/>
			<path fill="#E6E6E6" d="M51.356,111.682c0,0.687-0.457,1.367-1.374,2.039c-0.726,0.542-1.497,0.94-2.315,1.192
				c-0.436,0.123-0.924,0.291-1.467,0.505c-0.122,0.091-0.282,0.35-0.475,0.773c-0.194,0.424-0.292,0.716-0.292,0.877
				c0,0.267,0.242,0.401,0.723,0.401c0.427,0,1.112-0.305,2.052-0.916c0.441-0.291,1.076-0.833,1.901-1.627
				c0.161-0.206,0.362-0.439,0.608-0.699c0.03-0.023,0.072-0.035,0.126-0.035c0.145,0,0.217,0.035,0.217,0.103
				c0-0.015-0.05,0.05-0.147,0.195c-0.115,0.176-0.269,0.386-0.459,0.629c-0.452,0.573-1.176,1.181-2.177,1.822
				c-1.047,0.657-1.829,0.985-2.349,0.985c-0.391,0-0.653-0.076-0.791-0.229c-0.253-0.291-0.378-0.676-0.378-1.158
				c0-0.855,0.448-1.784,1.341-2.784c-0.176,0.022-0.703,0.279-1.582,0.768c-0.047,0-0.075-0.039-0.091-0.115
				c-0.038-0.038-0.057-0.076-0.057-0.115c0-0.046,0.03-0.091,0.091-0.137c0.733-0.626,1.693-1.276,2.877-1.949
				c1.406-0.802,2.444-1.202,3.117-1.202C51.054,111.006,51.356,111.231,51.356,111.682z M50.898,111.637
				c0-0.177-0.102-0.265-0.31-0.265c-0.38,0-0.854,0.26-1.42,0.781c-1.191,1.104-2.032,1.997-2.521,2.679
				c1.087-0.246,2.105-0.716,3.06-1.414c0.138-0.108,0.344-0.322,0.621-0.644C50.707,112.33,50.898,111.951,50.898,111.637z"/>
			<path fill="#E6E6E6" d="M62.301,105.849c-0.03,1.261-0.393,2.574-1.089,3.942c-0.42,0.833-1.112,1.918-2.073,3.254
				c-2.407,3.339-4.58,4.981-6.521,4.928c-0.879-0.023-1.318-0.742-1.318-2.155c0-0.749,0.382-1.543,1.146-2.383
				c-1.047,0.718-1.582,1.077-1.603,1.077c-0.1,0-0.151-0.069-0.151-0.206s0.764-0.68,2.292-1.627
				c1.497-0.916,2.43-1.436,2.798-1.558c0.549-0.19,0.995-0.286,1.34-0.286c0.404,0,0.802,0.181,1.193,0.544
				c0.387,0.363,0.552,0.544,0.491,0.544c0.068,0,0.158-0.069,0.264-0.206c0.176-0.267,0.45-0.664,0.825-1.192
				c0.511-0.657,0.949-1.425,1.307-2.304c0.405-0.962,0.606-1.81,0.606-2.544c0-1.673-1.038-2.51-3.117-2.51
				c-0.846,0-1.671,0.203-2.475,0.608c-0.97,0.482-1.456,1.104-1.456,1.868c0,1.185,1.128,1.776,3.382,1.776
				c0.642,0,1.194-0.215,1.661-0.646c0.391-0.36,0.585-0.672,0.585-0.933c0-0.499-0.427-0.749-1.284-0.749
				c-1.062,0-1.93,0.352-2.6,1.055c-0.1,0.023-0.183,0.034-0.253,0.034c-0.052,0-0.088-0.007-0.102-0.022
				c-0.016-0.015-0.027-0.034-0.036-0.057c0-0.213,0.258-0.529,0.775-0.945c0.516-0.417,1.178-0.625,1.987-0.625
				c1.237,0,1.858,0.421,1.858,1.261c0,0.725-0.402,1.268-1.205,1.627c-0.595,0.259-1.313,0.389-2.152,0.389
				c-1.115,0-1.933-0.298-2.453-0.894c-0.427-0.496-0.642-1.02-0.642-1.569c0-0.894,0.493-1.654,1.478-2.281
				c0.665-0.412,1.521-0.619,2.568-0.619c1.198,0,2.15,0.264,2.853,0.791C61.958,103.832,62.331,104.703,62.301,105.849z
				 M58.038,112.094c0-0.512-0.298-0.768-0.893-0.768c-0.771,0-1.804,0.725-3.101,2.172c-1.295,1.448-1.942,2.577-1.942,3.387
				c0,0.389,0.264,0.584,0.791,0.584c0.482,0,0.977-0.202,1.49-0.607c0.481-0.382,1.381-1.318,2.704-2.808
				C57.72,113.343,58.038,112.69,58.038,112.094z"/>
			<path fill="#E6E6E6" d="M65.52,111.682c0,0.374-0.16,0.764-0.481,1.168c-0.344,0.428-0.696,0.642-1.055,0.642
				c-0.291,0-0.434-0.126-0.434-0.377c0-0.326,0.24-0.644,0.728-0.951c0.484-0.308,0.726-0.477,0.726-0.508
				c0-0.174-0.106-0.262-0.321-0.262c-0.344,0-0.699,0.164-1.065,0.492c-1.399,1.235-2.364,2.234-2.898,2.997
				c-0.628,0.869-1.006,1.502-1.137,1.898c-0.036,0.107-0.057,0.195-0.057,0.263c0,0.267,0.242,0.401,0.725,0.401
				c0.473,0,1.241-0.436,2.303-1.306c0.244-0.206,0.943-0.837,2.096-1.891c0.038-0.03,0.084-0.046,0.138-0.046
				c0.152,0,0.23,0.03,0.23,0.091c0,0.008-0.05,0.077-0.151,0.206c-0.595,0.795-1.402,1.555-2.417,2.281
				c-1.047,0.749-1.856,1.123-2.428,1.123c-0.384,0-0.642-0.076-0.78-0.23c-0.274-0.305-0.405-0.691-0.389-1.157
				c0.022-0.482,0.24-1.089,0.653-1.822c0.398-0.711,0.798-1.222,1.203-1.536c-0.466,0.252-1.16,0.661-2.086,1.227l-0.091-0.299
				c0.741-0.557,1.289-0.959,1.65-1.203c0.612-0.428,1.189-0.79,1.731-1.089c0.94-0.511,1.811-0.768,2.611-0.768
				C65.19,111.028,65.52,111.246,65.52,111.682z"/>
			<path fill="#E6E6E6" d="M79.569,114.271c0,0.1-0.03,0.191-0.091,0.275c-0.206,0.29-0.579,0.729-1.123,1.317
				c-1.3,1.413-2.349,2.12-3.151,2.12c-0.574,0-0.861-0.343-0.861-1.031c0-0.519,0.185-1.05,0.552-1.593
				c0.061-0.091,0.42-0.542,1.076-1.352l1.227-1.501c0.204-0.245,0.308-0.463,0.308-0.654c0-0.229-0.122-0.343-0.366-0.343
				c-0.147,0-0.73,0.405-1.754,1.215c-0.9,0.717-1.514,1.226-1.833,1.523c-0.527,0.581-1.349,1.414-2.464,2.498
				c-0.237,0.221-0.592,0.554-1.065,0.997c-0.154,0.137-0.33,0.206-0.527,0.206c-0.093,0-0.212-0.048-0.355-0.143
				c-0.147-0.095-0.219-0.189-0.219-0.281c0-0.176,1.322-1.749,3.965-4.721c0.298-0.328,0.447-0.603,0.447-0.825
				c0-0.267-0.102-0.401-0.308-0.401c-0.122,0-0.47,0.187-1.044,0.561c-0.933,0.612-1.86,1.359-2.783,2.246
				c-0.825,0.832-1.646,1.665-2.464,2.498c-0.199,0.213-0.395,0.428-0.585,0.641c-0.298,0.306-0.513,0.458-0.642,0.458
				c-0.1,0-0.231-0.053-0.395-0.161c-0.165-0.107-0.247-0.21-0.247-0.309c0-0.068,0.825-1.069,2.475-3.002
				c0.595-0.695,1.081-1.295,1.456-1.799c0.276-0.367,0.412-0.669,0.412-0.906c0-0.29-0.115-0.435-0.344-0.435
				c-0.075,0-0.169,0.019-0.274,0.056c-0.665,0.283-1.429,0.855-2.292,1.714c-0.863,0.859-1.352,1.289-1.467,1.289
				c-0.099,0-0.149-0.092-0.149-0.275c0-0.122,0.473-0.622,1.42-1.501c0.689-0.627,1.302-1.089,1.845-1.386
				c0.396-0.206,0.744-0.309,1.042-0.309c0.52,0,0.78,0.29,0.78,0.871c0,0.412-0.264,1.15-0.791,2.211
				c1.261-1.388,2.604-2.373,4.035-2.955c0.19-0.084,0.339-0.126,0.445-0.126c0.452,0,0.678,0.314,0.678,0.942
				c0,0.506-0.126,0.943-0.38,1.311c-0.282,0.345-0.567,0.694-0.857,1.046h0.011c0.061-0.039,0.778-0.68,2.154-1.925
				c0.321-0.291,0.719-0.569,1.193-0.837c0.565-0.313,1.011-0.47,1.34-0.47c0.536,0,0.802,0.325,0.802,0.974
				c0,0.551-0.221,1.1-0.664,1.651c-0.405,0.45-0.814,0.905-1.227,1.363c-0.986,1.208-1.478,1.876-1.478,2.006
				c0,0.298,0.133,0.447,0.402,0.447c0.441,0,1.187-0.571,2.235-1.713c1.046-1.142,1.61-1.714,1.697-1.714
				C79.501,114.042,79.569,114.118,79.569,114.271z"/>
			<path fill="#E6E6E6" d="M92.966,103.27c0,1.131-2.019,3.014-6.062,5.65c-0.459,0.26-1.055,0.649-1.788,1.168
				c-0.099,0.092-0.274,0.302-0.527,0.63c-0.253,0.329-0.389,0.539-0.412,0.63l-0.045,0.091c0.029,0,0.23-0.076,0.595-0.229
				c0.366-0.153,0.676-0.23,0.929-0.23c0.816,0,1.225,0.516,1.225,1.547c0,1.146-0.723,2.33-2.165,3.553
				c-1.399,1.185-2.683,1.776-3.852,1.776c-0.879,0-1.316-0.428-1.316-1.284c0-0.595,0.172-1.199,0.516-1.81
				c0.212-0.382,0.538-0.829,0.972-1.341c0.375-0.436,0.57-0.703,0.585-0.802l-0.047-0.012c-0.228,0.038-0.9,0.603-2.016,1.696
				c-0.129,0.046-0.176,0.069-0.136,0.069c-0.016-0.008-0.05-0.019-0.104-0.035c-0.023-0.022-0.047-0.056-0.068-0.103
				c0-0.32,0.549-0.905,1.65-1.753c0.802-0.611,1.524-1.107,2.166-1.489c0.007-0.015,0.036-0.049,0.09-0.103
				c2.446-2.826,3.867-4.454,4.265-4.882c2.276-2.414,3.823-3.622,4.641-3.622c0.244,0,0.456,0.086,0.635,0.258
				S92.966,103.026,92.966,103.27z M86.033,112.025c0-0.321-0.19-0.482-0.572-0.482c-0.572,0-1.512,0.615-2.819,1.845
				c-1.275,1.199-1.994,2.096-2.154,2.693c-0.061,0.206-0.093,0.394-0.093,0.561c0,0.458,0.208,0.688,0.621,0.688
				c0.757,0,1.781-0.693,3.077-2.08C85.387,113.864,86.033,112.789,86.033,112.025z M92.438,103.362
				c0-0.299-0.149-0.447-0.447-0.447c-0.314,0-0.633,0.155-0.963,0.464c-0.328,0.309-0.814,0.777-1.454,1.403
				c-0.414,0.421-1.017,1.081-1.811,1.983c-0.977,1.108-1.483,1.742-1.512,1.903l0.047,0.034c0.082-0.015,0.481-0.248,1.191-0.699
				c1.329-0.863,2.486-1.749,3.472-2.658c0.267-0.23,0.642-0.593,1.123-1.089C92.32,103.958,92.438,103.66,92.438,103.362z"/>
			<path fill="#E6E6E6" d="M94.558,114.305c0,0.13-0.091,0.325-0.274,0.585c-0.222,0.313-0.554,0.603-0.997,0.871
				c-0.475,0.291-0.891,0.436-1.25,0.436c-0.19,0-0.344-0.05-0.457-0.149c-1.176,1.253-2.337,1.879-3.485,1.879
				c-0.687,0-1.029-0.584-1.029-1.753c0-0.779,0.441-1.662,1.327-2.647c-0.09,0.069-0.371,0.228-0.841,0.475
				c-0.47,0.248-0.719,0.373-0.751,0.373c-0.099,0-0.149-0.076-0.149-0.23c0-0.137,0.76-0.634,2.281-1.489
				c1.458-0.825,2.387-1.306,2.785-1.444c0.527-0.191,0.976-0.287,1.352-0.287c0.61,0,0.915,0.317,0.915,0.951
				c0,0.137-0.025,0.348-0.079,0.63c-0.075,0.374-0.291,0.837-0.642,1.386c-0.197,0.306-0.398,0.544-0.595,0.716
				c-0.199,0.171-0.33,0.33-0.391,0.475c-0.045,0.115-0.068,0.206-0.068,0.275c0,0.107,0.122,0.161,0.366,0.161
				c0.414,0,0.818-0.218,1.211-0.654c0.393-0.435,0.621-0.653,0.681-0.653S94.558,114.245,94.558,114.305z M93.618,111.865
				c0-0.367-0.213-0.55-0.642-0.55c-0.352,0-0.71,0.164-1.076,0.492c-0.857,0.764-1.352,1.207-1.49,1.33
				c-0.543,0.526-0.981,1.023-1.318,1.489c-0.319,0.436-0.75,1.112-1.284,2.028c-0.075,0.161-0.115,0.291-0.115,0.389
				c0,0.26,0.219,0.39,0.655,0.39c1.046,0,2.071-0.534,3.072-1.604c-0.07-0.091-0.104-0.206-0.104-0.344
				c0-0.305,0.24-0.89,0.721-1.753c0.506-0.901,0.879-1.352,1.123-1.352c0.032,0,0.065,0.022,0.104,0.063
				c0.039,0.042,0.075,0.064,0.115,0.064C93.54,112.507,93.618,112.292,93.618,111.865z"/>
			<path fill="#E6E6E6" d="M109.594,114.283c0,0.061-0.039,0.137-0.115,0.229c-1.94,2.261-3.37,3.392-4.286,3.392
				c-0.26,0-0.481-0.091-0.66-0.275c-0.179-0.183-0.269-0.404-0.269-0.664c0-0.612,0.554-1.585,1.661-2.922
				c1.108-1.337,1.662-2.101,1.662-2.292c0-0.237-0.109-0.355-0.332-0.355c-0.206,0-0.861,0.47-1.96,1.41
				c-0.879,0.749-1.548,1.349-2.005,1.799c-0.457,0.451-0.898,0.914-1.318,1.387c-0.305,0.389-0.782,0.943-1.431,1.662
				c-0.131,0.122-0.326,0.183-0.585,0.183c-0.115,0-0.246-0.044-0.391-0.132c-0.143-0.088-0.217-0.185-0.217-0.292
				c0-0.068,0.595-0.813,1.788-2.235c1.329-1.581,2.043-2.441,2.141-2.578c0.276-0.367,0.412-0.668,0.412-0.906
				c0-0.298-0.118-0.447-0.355-0.447c-0.068,0-0.156,0.023-0.262,0.069c-0.665,0.282-1.433,0.855-2.304,1.719
				c-0.893,0.893-1.379,1.341-1.454,1.341c-0.1,0-0.151-0.096-0.151-0.287c0-0.161,0.473-0.672,1.422-1.535
				c0.694-0.642,1.311-1.104,1.845-1.386c0.389-0.214,0.741-0.321,1.055-0.321c0.556,0,0.836,0.309,0.836,0.928
				c0,0.321-0.075,0.653-0.23,0.997c-0.161,0.306-0.319,0.611-0.481,0.916c0.237-0.259,0.71-0.683,1.42-1.272
				c0.742-0.612,1.245-0.99,1.514-1.135c0.457-0.244,0.836-0.367,1.133-0.367c0.534,0,0.803,0.332,0.803,0.995
				c0,0.542-0.222,1.087-0.665,1.636c-0.405,0.45-0.814,0.897-1.227,1.339c-0.985,1.19-1.478,1.864-1.478,2.025
				c0,0.29,0.135,0.435,0.4,0.435c0.445,0,1.176-0.546,2.195-1.639c1.02-1.092,1.576-1.638,1.668-1.638
				C109.519,114.065,109.594,114.138,109.594,114.283z"/>
			<path fill="#E6E6E6" d="M117.191,114.305c0,0.13-0.093,0.325-0.276,0.585c-0.222,0.313-0.552,0.603-0.997,0.871
				c-0.473,0.291-0.89,0.436-1.248,0.436c-0.19,0-0.344-0.05-0.459-0.149c-1.176,1.253-2.337,1.879-3.483,1.879
				c-0.689,0-1.031-0.584-1.031-1.753c0-0.779,0.443-1.662,1.329-2.647c-0.091,0.069-0.373,0.228-0.843,0.475
				c-0.47,0.248-0.719,0.373-0.75,0.373c-0.1,0-0.151-0.076-0.151-0.23c0-0.137,0.76-0.634,2.281-1.489
				c1.46-0.825,2.389-1.306,2.785-1.444c0.527-0.191,0.977-0.287,1.352-0.287c0.612,0,0.916,0.317,0.916,0.951
				c0,0.137-0.027,0.348-0.079,0.63c-0.077,0.374-0.291,0.837-0.642,1.386c-0.199,0.306-0.398,0.544-0.595,0.716
				c-0.201,0.171-0.33,0.33-0.391,0.475c-0.047,0.115-0.068,0.206-0.068,0.275c0,0.107,0.122,0.161,0.366,0.161
				c0.412,0,0.816-0.218,1.209-0.654c0.395-0.435,0.621-0.653,0.681-0.653C117.158,114.214,117.191,114.245,117.191,114.305z
				 M116.251,111.865c0-0.367-0.215-0.55-0.642-0.55c-0.352,0-0.71,0.164-1.078,0.492c-0.855,0.764-1.352,1.207-1.49,1.33
				c-0.542,0.526-0.981,1.023-1.316,1.489c-0.321,0.436-0.75,1.112-1.284,2.028c-0.075,0.161-0.115,0.291-0.115,0.389
				c0,0.26,0.219,0.39,0.653,0.39c1.047,0,2.071-0.534,3.072-1.604c-0.07-0.091-0.102-0.206-0.102-0.344
				c0-0.305,0.24-0.89,0.721-1.753c0.504-0.901,0.879-1.352,1.123-1.352c0.03,0,0.065,0.022,0.104,0.063
				c0.038,0.042,0.075,0.064,0.115,0.064C116.17,112.507,116.251,112.292,116.251,111.865z"/>
			<path fill="#E6E6E6" d="M131.789,111.726c-0.068,0.144-0.57,0.758-1.501,1.838l-3.359,3.893l2.934-2.025
				c0.276-0.19,0.71-0.566,1.307-1.127c0.091-0.083,0.163-0.125,0.217-0.125c0.108,0,0.192,0.091,0.253,0.274
				c-0.199,0.299-0.94,0.89-2.222,1.776c-0.857,0.581-1.709,1.158-2.557,1.731c-0.221,0.13-0.511,0.332-0.87,0.607
				c-0.626,0.733-1.551,1.814-2.774,3.243c-0.335,0.389-0.829,0.977-1.478,1.765c-0.443,0.55-1.008,1.115-1.697,1.696
				c-0.87,0.733-1.532,1.1-1.982,1.1c-0.244,0-0.457-0.084-0.637-0.252c-0.179-0.169-0.269-0.378-0.269-0.63
				c0-0.191,0.074-0.417,0.219-0.676c0.274-0.489,0.515-0.837,0.721-1.043c0.879-0.886,2.012-1.818,3.404-2.796
				c1.223-0.818,2.441-1.639,3.655-2.464c0.023-0.015,0.477-0.588,1.363-1.719c0.215-0.274,0.323-0.455,0.323-0.538
				c0-0.008-0.004-0.023-0.013-0.046l-0.045-0.012c-1.612,1.153-2.663,1.73-3.153,1.73c-0.527,0-0.789-0.328-0.789-0.985
				c0-0.542,0.217-1.089,0.653-1.638c0.412-0.451,0.821-0.901,1.227-1.352c0.985-1.185,1.478-1.856,1.478-2.017
				c0-0.298-0.135-0.447-0.402-0.447c-0.443,0-1.169,0.512-2.183,1.536s-1.566,1.535-1.655,1.535c-0.147,0-0.219-0.076-0.219-0.229
				c0-0.1,0.039-0.195,0.115-0.287c0.251-0.244,0.622-0.622,1.112-1.134c1.176-1.298,2.192-1.948,3.049-1.948
				c0.579,0,0.87,0.34,0.87,1.02c0,0.534-0.179,1.073-0.538,1.616c-0.054,0.076-0.418,0.527-1.089,1.352l-1.216,1.501
				c-0.204,0.252-0.308,0.47-0.308,0.653c0,0.238,0.104,0.355,0.308,0.355c0.291,0,1.159-0.638,2.602-1.914
				c1.078-0.955,1.948-1.768,2.613-2.441c0.291-0.382,0.733-0.932,1.329-1.65c0.091-0.1,0.274-0.149,0.551-0.149
				c0.038,0,0.09,0.007,0.154,0.022s0.113,0.023,0.143,0.023c0.206,0,0.308,0.095,0.308,0.285
				C131.742,111.665,131.758,111.695,131.789,111.726z M124.26,119.6c-2.062,1.345-3.763,2.617-5.1,3.816
				c-0.265,0.229-0.642,0.595-1.123,1.1c-0.23,0.298-0.344,0.599-0.344,0.905c0,0.291,0.154,0.436,0.459,0.436
				c0.352,0,1.356-0.906,3.013-2.716C122.198,121.964,123.229,120.784,124.26,119.6z"/>
			<path fill="#E6E6E6" d="M140.978,112.049c0,0.656-0.346,0.985-1.042,0.985c-0.543,0-0.821-0.314-0.836-0.942l0.034-0.067
				c-0.122,0.015-0.28,0.111-0.47,0.287c-0.628,0.55-1.318,1.287-2.073,2.211c-0.965,1.176-1.445,2.001-1.445,2.475
				c0,0.291,0.24,0.429,0.723,0.412c0.192-0.007,0.744-0.34,1.662-0.996c0.877-0.642,1.471-1.124,1.775-1.445
				c0.152-0.183,0.396-0.431,0.732-0.744c0.039-0.03,0.086-0.046,0.14-0.046c0.151,0,0.228,0.03,0.228,0.091
				c0,0.084-0.048,0.171-0.149,0.264c-2.278,2.216-3.816,3.323-4.618,3.323c-0.565,0-0.927-0.245-1.089-0.733
				c-0.03-0.084-0.047-0.237-0.047-0.458c0-0.138,0.057-0.382,0.172-0.733l0.047-0.126c-0.077,0-0.484,0.343-1.219,1.026
				c-0.739,0.684-1.32,1.026-1.749,1.026c-0.703,0-1.055-0.37-1.055-1.112c0-0.298,0.099-0.563,0.298-0.796
				c0.199-0.233,0.447-0.35,0.744-0.35c0.375,0,0.563,0.237,0.563,0.711c0,0.32-0.111,0.531-0.334,0.629
				c-0.136,0.054-0.274,0.111-0.412,0.172c0.061,0.145,0.145,0.218,0.253,0.218c0.352,0,0.69-0.149,1.02-0.446l1.295-1.144
				c0.366-0.327,0.879-0.95,1.535-1.864c0.717-1.006,1.076-1.673,1.076-2.001c0-0.29-0.19-0.435-0.572-0.435
				c-0.642,0-1.463,0.378-2.464,1.134c-0.167,0.123-0.893,0.738-2.177,1.845c-0.131,0.008-0.221-0.061-0.274-0.206
				c0.291-0.306,0.771-0.772,1.444-1.398c0.497-0.421,1.081-0.81,1.752-1.169c0.818-0.435,1.467-0.653,1.949-0.653
				c0.396,0,0.656,0.054,0.78,0.161c0.244,0.221,0.366,0.565,0.366,1.031c0,0.069-0.011,0.166-0.029,0.292
				c-0.02,0.126-0.029,0.22-0.029,0.281l-0.011,0.126c0.319-0.317,0.637-0.638,0.951-0.962c0.619-0.619,1.173-0.928,1.661-0.928
				c0.269,0,0.49,0.11,0.665,0.332C140.903,111.532,140.978,111.773,140.978,112.049z"/>
			<path fill="#E6E6E6" d="M148.107,114.305c0,0.13-0.091,0.325-0.274,0.585c-0.222,0.313-0.554,0.603-0.997,0.871
				c-0.473,0.291-0.89,0.436-1.248,0.436c-0.192,0-0.344-0.05-0.459-0.149c-1.176,1.253-2.339,1.879-3.483,1.879
				c-0.689,0-1.033-0.584-1.033-1.753c0-0.779,0.445-1.662,1.331-2.647c-0.093,0.069-0.373,0.228-0.843,0.475
				c-0.47,0.248-0.721,0.373-0.75,0.373c-0.1,0-0.151-0.076-0.151-0.23c0-0.137,0.76-0.634,2.281-1.489
				c1.46-0.825,2.387-1.306,2.783-1.444c0.527-0.191,0.979-0.287,1.352-0.287c0.612,0,0.918,0.317,0.918,0.951
				c0,0.137-0.029,0.348-0.081,0.63c-0.077,0.374-0.291,0.837-0.642,1.386c-0.199,0.306-0.396,0.544-0.595,0.716
				c-0.199,0.171-0.328,0.33-0.389,0.475c-0.047,0.115-0.07,0.206-0.07,0.275c0,0.107,0.124,0.161,0.368,0.161
				c0.412,0,0.814-0.218,1.209-0.654c0.393-0.435,0.621-0.653,0.681-0.653S148.107,114.245,148.107,114.305z M147.167,111.865
				c0-0.367-0.213-0.55-0.64-0.55c-0.352,0-0.712,0.164-1.08,0.492c-0.854,0.764-1.352,1.207-1.489,1.33
				c-0.542,0.526-0.983,1.023-1.318,1.489c-0.321,0.436-0.748,1.112-1.282,2.028c-0.077,0.161-0.115,0.291-0.115,0.389
				c0,0.26,0.217,0.39,0.653,0.39c1.047,0,2.07-0.534,3.07-1.604c-0.068-0.091-0.102-0.206-0.102-0.344
				c0-0.305,0.24-0.89,0.723-1.753c0.502-0.901,0.877-1.352,1.123-1.352c0.029,0,0.065,0.022,0.102,0.063
				c0.038,0.042,0.077,0.064,0.115,0.064C147.086,112.507,147.167,112.292,147.167,111.865z"/>
			<path fill="#E6E6E6" d="M159.496,105.849c-0.029,1.261-0.393,2.574-1.087,3.942c-0.421,0.833-1.112,1.918-2.075,3.254
				c-2.407,3.339-4.58,4.981-6.521,4.928c-0.877-0.023-1.318-0.742-1.318-2.155c0-0.749,0.384-1.543,1.148-2.383
				c-1.047,0.718-1.582,1.077-1.605,1.077c-0.099,0-0.149-0.069-0.149-0.206s0.764-0.68,2.292-1.627
				c1.496-0.916,2.428-1.436,2.796-1.558c0.551-0.19,0.995-0.286,1.34-0.286c0.405,0,0.803,0.181,1.193,0.544
				s0.554,0.544,0.493,0.544c0.068,0,0.156-0.069,0.262-0.206c0.176-0.267,0.452-0.664,0.825-1.192
				c0.513-0.657,0.949-1.425,1.307-2.304c0.405-0.962,0.608-1.81,0.608-2.544c0-1.673-1.04-2.51-3.117-2.51
				c-0.848,0-1.673,0.203-2.475,0.608c-0.972,0.482-1.456,1.104-1.456,1.868c0,1.185,1.126,1.776,3.381,1.776
				c0.642,0,1.196-0.215,1.662-0.646c0.389-0.36,0.585-0.672,0.585-0.933c0-0.499-0.429-0.749-1.284-0.749
				c-1.062,0-1.93,0.352-2.6,1.055c-0.1,0.023-0.185,0.034-0.255,0.034c-0.052,0-0.086-0.007-0.102-0.022s-0.027-0.034-0.034-0.057
				c0-0.213,0.258-0.529,0.775-0.945c0.515-0.417,1.176-0.625,1.987-0.625c1.237,0,1.856,0.421,1.856,1.261
				c0,0.725-0.4,1.268-1.203,1.627c-0.595,0.259-1.313,0.389-2.154,0.389c-1.115,0-1.933-0.298-2.452-0.894
				c-0.429-0.496-0.642-1.02-0.642-1.569c0-0.894,0.491-1.654,1.478-2.281c0.664-0.412,1.521-0.619,2.568-0.619
				c1.198,0,2.148,0.264,2.851,0.791C159.154,103.832,159.529,104.703,159.496,105.849z M155.235,112.094
				c0-0.512-0.298-0.768-0.895-0.768c-0.771,0-1.804,0.725-3.101,2.172c-1.295,1.448-1.94,2.577-1.94,3.387
				c0,0.389,0.262,0.584,0.789,0.584c0.482,0,0.979-0.202,1.49-0.607c0.482-0.382,1.383-1.318,2.704-2.808
				C154.916,113.343,155.235,112.69,155.235,112.094z"/>
			<path fill="#E6E6E6" d="M165.743,111.726c-0.07,0.144-0.568,0.758-1.501,1.838l-3.357,3.893l2.934-2.025
				c0.274-0.19,0.71-0.566,1.306-1.127c0.091-0.083,0.165-0.125,0.219-0.125c0.106,0,0.19,0.091,0.251,0.274
				c-0.199,0.299-0.94,0.89-2.224,1.776c-0.855,0.581-1.707,1.158-2.554,1.731c-0.222,0.13-0.513,0.332-0.872,0.607
				c-0.628,0.733-1.551,1.814-2.773,3.243c-0.337,0.389-0.83,0.977-1.48,1.765c-0.443,0.55-1.008,1.115-1.695,1.696
				c-0.872,0.733-1.532,1.1-1.983,1.1c-0.244,0-0.456-0.084-0.635-0.252c-0.179-0.169-0.269-0.378-0.269-0.63
				c0-0.191,0.072-0.417,0.215-0.676c0.276-0.489,0.516-0.837,0.723-1.043c0.879-0.886,2.014-1.818,3.404-2.796
				c1.221-0.818,2.441-1.639,3.657-2.464c0.022-0.015,0.477-0.588,1.363-1.719c0.213-0.274,0.319-0.455,0.319-0.538
				c0-0.008-0.004-0.023-0.011-0.046l-0.047-0.012c-1.61,1.153-2.661,1.73-3.149,1.73c-0.527,0-0.793-0.328-0.793-0.985
				c0-0.542,0.219-1.089,0.655-1.638c0.412-0.451,0.82-0.901,1.225-1.352c0.986-1.185,1.48-1.856,1.48-2.017
				c0-0.298-0.135-0.447-0.402-0.447c-0.443,0-1.171,0.512-2.183,1.536c-1.011,1.024-1.564,1.535-1.657,1.535
				c-0.143,0-0.217-0.076-0.217-0.229c0-0.1,0.038-0.195,0.115-0.287c0.253-0.244,0.622-0.622,1.112-1.134
				c1.176-1.298,2.193-1.948,3.047-1.948c0.581,0,0.872,0.34,0.872,1.02c0,0.534-0.179,1.073-0.538,1.616
				c-0.054,0.076-0.416,0.527-1.089,1.352l-1.214,1.501c-0.208,0.252-0.31,0.47-0.31,0.653c0,0.238,0.102,0.355,0.31,0.355
				c0.291,0,1.157-0.638,2.6-1.914c1.076-0.955,1.948-1.768,2.613-2.441c0.289-0.382,0.733-0.932,1.329-1.65
				c0.091-0.1,0.276-0.149,0.551-0.149c0.038,0,0.09,0.007,0.154,0.022s0.113,0.023,0.143,0.023c0.206,0,0.31,0.095,0.31,0.285
				C165.698,111.665,165.712,111.695,165.743,111.726z M158.214,119.6c-2.062,1.345-3.763,2.617-5.099,3.816
				c-0.269,0.229-0.642,0.595-1.123,1.1c-0.23,0.298-0.344,0.599-0.344,0.905c0,0.291,0.152,0.436,0.457,0.436
				c0.352,0,1.358-0.906,3.015-2.716C156.152,121.964,157.183,120.784,158.214,119.6z"/>
			<path fill="#E6E6E6" d="M177.488,112.415c0,0.496-0.328,0.913-0.985,1.248c-0.511,0.268-1.067,0.429-1.662,0.482
				c0.56,0.314,0.838,0.673,0.838,1.077c0,0.383-0.135,0.76-0.402,1.135c-0.748,1.001-1.863,1.501-3.345,1.501
				c-1.169,0-1.879-0.267-2.132-0.803c-0.07-0.161-0.102-0.352-0.102-0.573c0-0.274,0.106-0.527,0.319-0.756
				c0.215-0.23,0.456-0.344,0.723-0.344c0.152,0,0.296,0.054,0.429,0.161c0.135,0.108,0.201,0.233,0.201,0.378
				c0,0.466-0.267,0.699-0.802,0.699c-0.115,0-0.203-0.012-0.264-0.035h-0.011c-0.122,0.069-0.183,0.149-0.183,0.241
				c0,0.168,0.183,0.313,0.549,0.435c0.291,0.1,0.545,0.149,0.768,0.149c0.581,0,1.196-0.217,1.845-0.653
				c0.68-0.451,1.081-0.947,1.203-1.489c0.03-0.123,0.047-0.287,0.047-0.493c0-0.298-0.341-0.447-1.02-0.447
				c-0.124,0-0.307,0.007-0.551,0.022s-0.427,0.023-0.549,0.023c-0.063,0-0.093-0.022-0.093-0.066c0-0.038,0.03-0.097,0.093-0.178
				c0.061-0.082,0.106-0.122,0.136-0.122c0.1,0,0.247,0.007,0.441,0.022c0.194,0.016,0.337,0.023,0.43,0.023
				c1.137,0,1.883-0.271,2.235-0.813c0.312-0.489,0.47-0.898,0.47-1.227c0-0.397-0.256-0.595-0.768-0.595
				c-0.597,0-1.315,0.255-2.156,0.765c-0.52,0.327-1.166,0.803-1.937,1.427c-0.617,0.51-0.958,0.765-1.019,0.765
				c-0.145,0-0.219-0.03-0.219-0.091c0-0.046,0.05-0.114,0.151-0.205c2.123-2.041,4.006-3.061,5.649-3.061
				c0.457,0,0.839,0.115,1.144,0.344C177.312,111.621,177.488,111.972,177.488,112.415z"/>
			<path fill="#E6E6E6" d="M186.53,114.283c0,0.152-0.409,0.656-1.227,1.512c-1.359,1.414-2.441,2.121-3.242,2.121
				c-0.26,0-0.477-0.094-0.653-0.281c-0.176-0.187-0.265-0.411-0.265-0.671c0-0.069,0.02-0.174,0.057-0.315
				c0.039-0.142,0.057-0.247,0.057-0.316c0-0.046-0.022-0.069-0.068-0.069c-0.014,0-0.373,0.266-1.071,0.797
				c-0.699,0.531-1.268,0.796-1.702,0.796c-0.787,0-1.18-0.431-1.18-1.295c0-0.588,0.274-1.33,0.825-2.224
				c0.129-0.198,0.264-0.416,0.402-0.653l-0.013-0.012c-0.122,0.039-0.364,0.169-0.726,0.39c-0.364,0.221-0.552,0.332-0.568,0.332
				c-0.061,0-0.145-0.107-0.253-0.32c0.115-0.1,0.707-0.497,1.777-1.193c0.68-0.443,1.444-0.863,2.292-1.26
				c1.078-0.505,1.878-0.757,2.405-0.757c0.384,0,0.642,0.142,0.78,0.424c0.138,0.282,0.237,0.428,0.299,0.436l0.056-0.035
				c0.375-0.55,0.683-0.825,0.929-0.825c0.534,0,0.802,0.062,0.802,0.184c0,0.03-1.329,1.799-3.988,5.306
				c-0.176,0.229-0.262,0.412-0.262,0.55c0,0.298,0.133,0.447,0.4,0.447c0.443,0,1.185-0.546,2.229-1.638
				c1.044-1.092,1.607-1.638,1.689-1.638C186.458,114.077,186.53,114.145,186.53,114.283z M183.894,112.004
				c0-0.498-0.197-0.746-0.595-0.746c-0.635,0-1.666,0.777-3.095,2.33c-1.428,1.554-2.141,2.656-2.141,3.307
				c0,0.267,0.187,0.402,0.561,0.402s0.805-0.195,1.295-0.586c1.404-1.125,2.41-2.059,3.015-2.802
				C183.574,113.114,183.894,112.478,183.894,112.004z"/>
			<path fill="#E6E6E6" d="M203.626,114.34c0,0.108-0.409,0.581-1.225,1.421c-1.377,1.413-2.457,2.12-3.244,2.12
				c-0.253,0-0.468-0.091-0.647-0.274c-0.179-0.184-0.269-0.402-0.269-0.654c0-0.558,0.377-1.312,1.128-2.263
				c0.751-0.95,1.128-1.461,1.128-1.53c0-0.061-0.045-0.091-0.136-0.091c-0.183,0-0.972,0.81-2.367,2.429
				c-1.393,1.62-2.331,2.429-2.812,2.429c-0.412,0-0.62-0.225-0.62-0.676c0-0.695,0.364-1.539,1.09-2.532
				c0.725-0.993,1.089-1.516,1.089-1.57c0-0.091-0.038-0.137-0.115-0.137c-0.23,0-1.211,1.115-2.947,3.346
				c-0.809,1.046-1.596,1.569-2.36,1.569c-0.23,0-0.42-0.099-0.572-0.298c-0.145-0.176-0.217-0.386-0.217-0.63
				c0-0.298,0.083-0.577,0.251-0.837c0.183-0.29,0.416-0.435,0.699-0.435c0.427,0,0.642,0.198,0.642,0.595
				c0,0.405-0.215,0.608-0.642,0.608c-0.077,0-0.145,0-0.206,0c-0.115,0.022-0.172,0.078-0.172,0.167
				c0,0.179,0.131,0.268,0.389,0.268c0.42,0,0.967-0.36,1.639-1.079c0.19-0.199,0.638-0.742,1.341-1.63
				c0.879-1.102,1.81-2.025,2.794-2.767c0.796-0.596,1.377-0.895,1.743-0.895c0.412,0,0.619,0.076,0.619,0.229
				c0,0.062-0.023,0.119-0.07,0.172c-0.441,0.551-1.099,1.376-1.969,2.476c-0.384,0.558-0.976,1.378-1.777,2.463
				c-0.253,0.329-0.378,0.542-0.378,0.642c0,0.183,0.05,0.274,0.151,0.274c0.197,0,0.882-0.653,2.05-1.959
				c0.719-0.81,1.436-1.619,2.154-2.429c0.42-0.405,0.906-0.786,1.456-1.146c0.703-0.451,1.252-0.676,1.65-0.676
				c0.312,0,0.47,0.069,0.47,0.207c0,0.092-0.612,0.895-1.833,2.409c-1.429,1.775-2.156,2.677-2.177,2.707
				c-0.169,0.23-0.253,0.415-0.253,0.553c0,0.299,0.135,0.449,0.4,0.449c0.445,0,1.184-0.538,2.218-1.616
				c1.035-1.077,1.598-1.616,1.691-1.616C203.553,114.133,203.626,114.202,203.626,114.34z"/>
			<path fill="#E6E6E6" d="M210.421,111.682c0,0.687-0.459,1.367-1.374,2.039c-0.728,0.542-1.499,0.94-2.317,1.192
				c-0.434,0.123-0.924,0.291-1.467,0.505c-0.122,0.091-0.28,0.35-0.473,0.773c-0.195,0.424-0.294,0.716-0.294,0.877
				c0,0.267,0.242,0.401,0.723,0.401c0.429,0,1.112-0.305,2.052-0.916c0.443-0.291,1.078-0.833,1.903-1.627
				c0.16-0.206,0.362-0.439,0.606-0.699c0.032-0.023,0.072-0.035,0.126-0.035c0.147,0,0.219,0.035,0.219,0.103
				c0-0.015-0.05,0.05-0.149,0.195c-0.115,0.176-0.267,0.386-0.457,0.629c-0.452,0.573-1.176,1.181-2.177,1.822
				c-1.047,0.657-1.831,0.985-2.349,0.985c-0.391,0-0.655-0.076-0.793-0.229c-0.251-0.291-0.377-0.676-0.377-1.158
				c0-0.855,0.447-1.784,1.34-2.784c-0.176,0.022-0.701,0.279-1.58,0.768c-0.047,0-0.077-0.039-0.093-0.115
				c-0.038-0.038-0.057-0.076-0.057-0.115c0-0.046,0.032-0.091,0.093-0.137c0.732-0.626,1.691-1.276,2.877-1.949
				c1.404-0.802,2.443-1.202,3.117-1.202C210.12,111.006,210.421,111.231,210.421,111.682z M209.962,111.637
				c0-0.177-0.102-0.265-0.308-0.265c-0.382,0-0.855,0.26-1.42,0.781c-1.193,1.104-2.034,1.997-2.521,2.679
				c1.085-0.246,2.105-0.716,3.059-1.414c0.136-0.108,0.344-0.322,0.619-0.644C209.772,112.33,209.962,111.951,209.962,111.637z"/>
			<path fill="#E6E6E6" d="M219.428,112.049c0,0.656-0.346,0.985-1.042,0.985c-0.543,0-0.821-0.314-0.836-0.942l0.034-0.067
				c-0.122,0.015-0.28,0.111-0.47,0.287c-0.628,0.55-1.318,1.287-2.073,2.211c-0.965,1.176-1.445,2.001-1.445,2.475
				c0,0.291,0.24,0.429,0.723,0.412c0.192-0.007,0.744-0.34,1.662-0.996c0.877-0.642,1.471-1.124,1.775-1.445
				c0.152-0.183,0.396-0.431,0.732-0.744c0.039-0.03,0.086-0.046,0.14-0.046c0.151,0,0.228,0.03,0.228,0.091
				c0,0.084-0.048,0.171-0.149,0.264c-2.278,2.216-3.816,3.323-4.618,3.323c-0.565,0-0.927-0.245-1.089-0.733
				c-0.03-0.084-0.047-0.237-0.047-0.458c0-0.138,0.057-0.382,0.172-0.733l0.047-0.126c-0.077,0-0.484,0.343-1.219,1.026
				c-0.739,0.684-1.32,1.026-1.749,1.026c-0.703,0-1.055-0.37-1.055-1.112c0-0.298,0.099-0.563,0.298-0.796s0.447-0.35,0.744-0.35
				c0.375,0,0.563,0.237,0.563,0.711c0,0.32-0.111,0.531-0.334,0.629c-0.136,0.054-0.274,0.111-0.412,0.172
				c0.061,0.145,0.145,0.218,0.253,0.218c0.352,0,0.69-0.149,1.02-0.446l1.295-1.144c0.366-0.327,0.879-0.95,1.535-1.864
				c0.717-1.006,1.076-1.673,1.076-2.001c0-0.29-0.19-0.435-0.572-0.435c-0.642,0-1.463,0.378-2.464,1.134
				c-0.167,0.123-0.893,0.738-2.177,1.845c-0.131,0.008-0.221-0.061-0.274-0.206c0.291-0.306,0.771-0.772,1.444-1.398
				c0.497-0.421,1.081-0.81,1.752-1.169c0.818-0.435,1.467-0.653,1.949-0.653c0.396,0,0.656,0.054,0.78,0.161
				c0.244,0.221,0.366,0.565,0.366,1.031c0,0.069-0.011,0.166-0.029,0.292c-0.02,0.126-0.029,0.22-0.029,0.281l-0.011,0.126
				c0.319-0.317,0.637-0.638,0.951-0.962c0.619-0.619,1.173-0.928,1.661-0.928c0.269,0,0.49,0.11,0.665,0.332
				C219.352,111.532,219.428,111.773,219.428,112.049z"/>
			<path fill="#E6E6E6" d="M226.556,114.305c0,0.13-0.091,0.325-0.274,0.585c-0.222,0.313-0.554,0.603-0.997,0.871
				c-0.473,0.291-0.89,0.436-1.248,0.436c-0.192,0-0.344-0.05-0.459-0.149c-1.176,1.253-2.339,1.879-3.483,1.879
				c-0.689,0-1.033-0.584-1.033-1.753c0-0.779,0.445-1.662,1.331-2.647c-0.093,0.069-0.373,0.228-0.843,0.475
				c-0.47,0.248-0.721,0.373-0.75,0.373c-0.1,0-0.151-0.076-0.151-0.23c0-0.137,0.76-0.634,2.281-1.489
				c1.46-0.825,2.387-1.306,2.783-1.444c0.527-0.191,0.979-0.287,1.352-0.287c0.612,0,0.918,0.317,0.918,0.951
				c0,0.137-0.029,0.348-0.081,0.63c-0.077,0.374-0.291,0.837-0.642,1.386c-0.199,0.306-0.396,0.544-0.595,0.716
				c-0.199,0.171-0.328,0.33-0.389,0.475c-0.047,0.115-0.07,0.206-0.07,0.275c0,0.107,0.124,0.161,0.368,0.161
				c0.412,0,0.814-0.218,1.209-0.654c0.393-0.435,0.621-0.653,0.681-0.653S226.556,114.245,226.556,114.305z M225.617,111.865
				c0-0.367-0.213-0.55-0.64-0.55c-0.352,0-0.712,0.164-1.08,0.492c-0.854,0.764-1.352,1.207-1.489,1.33
				c-0.542,0.526-0.983,1.023-1.318,1.489c-0.321,0.436-0.748,1.112-1.282,2.028c-0.077,0.161-0.115,0.291-0.115,0.389
				c0,0.26,0.217,0.39,0.653,0.39c1.047,0,2.07-0.534,3.07-1.604c-0.068-0.091-0.102-0.206-0.102-0.344
				c0-0.305,0.24-0.89,0.723-1.753c0.502-0.901,0.877-1.352,1.123-1.352c0.029,0,0.065,0.022,0.102,0.063
				c0.038,0.042,0.077,0.064,0.115,0.064C225.536,112.507,225.617,112.292,225.617,111.865z"/>
			<path fill="#E6E6E6" d="M239.094,114.34c0,0.108-0.409,0.581-1.227,1.421c-1.376,1.413-2.457,2.12-3.242,2.12
				c-0.253,0-0.47-0.091-0.649-0.274c-0.179-0.184-0.269-0.402-0.269-0.654c0-0.558,0.377-1.312,1.13-2.263
				c0.751-0.95,1.128-1.461,1.128-1.53c0-0.061-0.045-0.091-0.138-0.091c-0.183,0-0.972,0.81-2.365,2.429
				c-1.393,1.62-2.333,2.429-2.814,2.429c-0.412,0-0.619-0.225-0.619-0.676c0-0.695,0.364-1.539,1.089-2.532
				c0.726-0.993,1.09-1.516,1.09-1.57c0-0.091-0.039-0.137-0.115-0.137c-0.23,0-1.212,1.115-2.947,3.346
				c-0.809,1.046-1.596,1.569-2.36,1.569c-0.23,0-0.421-0.099-0.572-0.298c-0.147-0.176-0.219-0.386-0.219-0.63
				c0-0.298,0.084-0.577,0.251-0.837c0.185-0.29,0.416-0.435,0.699-0.435c0.429,0,0.642,0.198,0.642,0.595
				c0,0.405-0.213,0.608-0.642,0.608c-0.075,0-0.143,0-0.204,0c-0.115,0.022-0.172,0.078-0.172,0.167
				c0,0.179,0.129,0.268,0.389,0.268c0.42,0,0.967-0.36,1.637-1.079c0.192-0.199,0.638-0.742,1.341-1.63
				c0.879-1.102,1.811-2.025,2.796-2.767c0.794-0.596,1.376-0.895,1.741-0.895c0.412,0,0.62,0.076,0.62,0.229
				c0,0.062-0.025,0.119-0.07,0.172c-0.443,0.551-1.099,1.376-1.971,2.476c-0.382,0.558-0.974,1.378-1.775,2.463
				c-0.253,0.329-0.378,0.542-0.378,0.642c0,0.183,0.048,0.274,0.149,0.274c0.197,0,0.882-0.653,2.052-1.959
				c0.717-0.81,1.435-1.619,2.154-2.429c0.42-0.405,0.906-0.786,1.454-1.146c0.703-0.451,1.254-0.676,1.65-0.676
				c0.314,0,0.47,0.069,0.47,0.207c0,0.092-0.61,0.895-1.833,2.409c-1.428,1.775-2.154,2.677-2.177,2.707
				c-0.169,0.23-0.251,0.415-0.251,0.553c0,0.299,0.133,0.449,0.4,0.449c0.443,0,1.182-0.538,2.218-1.616
				c1.035-1.077,1.598-1.616,1.689-1.616C239.02,114.133,239.094,114.202,239.094,114.34z"/>
		</g>
		<g>
			<g>
				<path fill="#E6E6E6" d="M161.314,1.1c-0.084,0.336-0.432,0.607-1.042,0.813c-0.49,0.176-0.95,0.264-1.388,0.264
					c-0.825,0-1.879-0.179-3.162-0.539c0.03,0.046,0.045,0.088,0.045,0.126c0,0.069-0.038,0.122-0.115,0.161
					c-0.143,0.061-0.362,0.157-0.653,0.286c-0.343,0.153-0.793,0.386-1.352,0.699c-1.603,0.924-2.864,1.948-3.78,3.071
					c-0.551,0.673-1.169,1.562-1.858,2.669h0.07c0.482,0,0.988,0.123,1.519,0.367c0.531,0.245,0.864,0.367,1.003,0.367
					c0.253,0,0.547-0.076,0.882-0.229c0.335-0.153,0.558-0.321,0.665-0.505h0.319c-0.459,0.902-1.284,1.352-2.475,1.352
					c-0.197,0-0.52-0.073-0.968-0.217c-0.447-0.145-0.823-0.218-1.128-0.218h-0.436c-0.886,1.467-1.535,2.478-1.948,3.036
					c-0.864,1.176-1.822,2.147-2.877,2.911c-1.804,1.306-3.87,1.96-6.2,1.96c-0.78,0-1.478-0.081-2.096-0.241
					c-0.933-0.244-1.704-0.722-2.315-1.432c-0.633-0.741-0.952-1.582-0.952-2.521c0-1.375,0.667-2.513,1.994-3.415
					c1.193-0.81,2.507-1.215,3.942-1.215c1.01,0,1.862,0.187,2.557,0.562c0.863,0.465,1.295,1.161,1.295,2.085
					c0,0.833-0.452,1.601-1.352,2.304c-0.857,0.657-1.838,0.985-2.945,0.985c-1.98,0-2.97-0.523-2.97-1.57
					c0-0.343,0.183-0.725,0.545-1.146c0.362-0.42,0.712-0.629,1.047-0.629c0.086,0,0.127,0.046,0.127,0.137
					c0,0.13-0.195,0.334-0.585,0.613c-0.389,0.279-0.585,0.597-0.585,0.957c0,0.634,0.454,0.95,1.365,0.95
					c1.167,0,2.349-0.286,3.54-0.859c0.373-0.176,0.696-0.431,0.961-0.768c0.299-0.375,0.448-0.749,0.448-1.124
					c0-0.717-0.432-1.26-1.295-1.627c-0.656-0.275-1.399-0.412-2.224-0.412c-1.207,0-2.374,0.412-3.506,1.237
					c-1.23,0.886-1.845,1.91-1.845,3.071c0,0.741,0.287,1.437,0.861,2.091c0.572,0.653,1.225,1.06,1.958,1.22
					c0.466,0.091,1.031,0.137,1.697,0.137c0.916,0,1.883-0.187,2.898-0.561c1.521-0.558,2.97-1.627,4.344-3.208
					c0.321-0.367,1.162-1.494,2.521-3.381c-1.49,0.267-2.482,0.882-2.981,1.844h-0.617c1.001-1.596,2.428-2.529,4.284-2.796
					c0.016-0.022,0.03-0.046,0.047-0.069c0.78-1.084,1.833-2.311,3.162-3.678c0.832-0.863,2.152-1.734,3.954-2.612
					c0.368-0.184,0.927-0.417,1.684-0.699l0.161-0.115c-0.85-0.229-1.697-0.455-2.545-0.676c-0.985-0.229-1.856-0.343-2.613-0.343
					c-1.428,0-2.837,0.309-4.229,0.928c-1.467,0.649-2.608,1.513-3.425,2.59c-0.534,0.703-0.803,1.333-0.803,1.891
					c0,0.328,0.143,0.588,0.425,0.779c0.244,0.176,0.543,0.264,0.895,0.264c0.877,0,1.879-0.472,3.002-1.416
					c1.123-0.943,1.745-1.85,1.867-2.721c0.023-0.161,0.034-0.321,0.034-0.481c0-0.084-0.018-0.208-0.057-0.373
					c-0.038-0.164-0.057-0.288-0.057-0.372c0-0.061,0.039-0.091,0.115-0.091c0.305,0,0.459,0.336,0.459,1.008
					c0,1.528-0.78,2.831-2.339,3.908c-1.015,0.71-1.944,1.066-2.783,1.066c-0.574,0-1.058-0.126-1.456-0.378
					c-0.459-0.298-0.689-0.718-0.689-1.261c0-0.489,0.204-1.058,0.61-1.707c0.746-1.215,2.184-2.319,4.308-3.311
					C147.548,0.298,148.843,0,150.165,0c1.184,0,2.547,0.137,4.091,0.412c1.345,0.282,2.688,0.561,4.033,0.837
					c0.527,0.107,0.976,0.161,1.341,0.161c0.443,0,0.882-0.081,1.316-0.241c0.063-0.03,0.165-0.061,0.312-0.091L161.314,1.1z"/>
				<path fill="#E6E6E6" d="M156.284,14.69c-1.245,1.07-1.919,1.65-2.016,1.742c-0.94,0.695-1.736,1.043-2.385,1.043
					s-0.974-0.248-0.974-0.745c0-0.374,0.188-0.818,0.561-1.329c0.33-0.375,0.653-0.749,0.976-1.124
					c-0.719,0.612-1.438,1.227-2.156,1.845c-1.123,0.901-1.914,1.352-2.371,1.352c-0.635,0-0.952-0.248-0.952-0.745
					c0-0.458,0.54-1.31,1.616-2.556c0.717-0.771,1.424-1.547,2.12-2.326c-1.619,1.107-2.866,2.055-3.736,2.842v-0.412
					c0.886-0.718,2.242-1.707,4.069-2.968h1.352c-0.796,0.917-1.605,1.837-2.432,2.762c-1.449,1.673-2.177,2.594-2.177,2.762
					c0,0.191,0.124,0.286,0.368,0.286c0.321,0,1.157-0.553,2.509-1.662c0.764-0.649,1.521-1.298,2.27-1.948
					c0.344-0.291,1.035-1.024,2.073-2.2h1.284c-0.803,0.917-1.603,1.837-2.407,2.762c-1.436,1.673-2.156,2.594-2.156,2.762
					c0,0.191,0.131,0.286,0.391,0.286c0.497,0,1.23-0.386,2.2-1.157c0.665-0.558,1.322-1.119,1.971-1.685V14.69z"/>
				<path fill="#E6E6E6" d="M163.194,14.69c-0.633,0.542-1.264,1.097-1.892,1.662c-0.938,0.749-1.657,1.124-2.152,1.124
					c-0.789,0-1.18-0.34-1.18-1.02c0-0.443,0.47-1.187,1.408-2.235c0.635-0.641,1.275-1.298,1.924-1.971
					c-0.258,0.245-0.567,0.367-0.927,0.367c-0.404,0-0.676-0.088-0.812-0.264l-3.278,2.338v-0.412l3.07-2.177
					c-0.083-0.137-0.126-0.325-0.126-0.561c0-0.26,0.075-0.517,0.23-0.774c0.152-0.256,0.341-0.384,0.561-0.384
					c0.429,0,0.642,0.24,0.642,0.722c0,0.191-0.086,0.367-0.258,0.527c-0.17,0.161-0.256,0.275-0.256,0.343
					c0,0.169,0.122,0.253,0.366,0.253c0.42,0,0.99-0.306,1.707-0.917h0.974c-0.748,0.887-1.508,1.765-2.279,2.636
					c-1.345,1.604-2.018,2.49-2.018,2.658c0,0.329,0.145,0.493,0.436,0.493c0.373,0,1.046-0.401,2.016-1.203
					c0.621-0.55,1.234-1.089,1.845-1.616V14.69z"/>
				<path fill="#E6E6E6" d="M174.917,12.124c0,0.328-0.126,0.666-0.373,1.014c-0.247,0.347-0.525,0.521-0.832,0.521
					c-0.473,0-0.71-0.179-0.71-0.539c0-0.374,0.244-0.621,0.728-0.739c0.484-0.118,0.728-0.281,0.728-0.487
					c0-0.252-0.165-0.378-0.493-0.378c-0.626,0-1.533,0.644-2.721,1.931c-1.189,1.287-1.783,2.248-1.783,2.882
					c0,0.526,0.283,0.79,0.848,0.79c0.579,0,1.322-0.367,2.222-1.099c0.665-0.581,1.324-1.161,1.973-1.742v0.412
					c-1.04,0.933-1.704,1.513-1.994,1.742c-0.925,0.695-1.693,1.043-2.303,1.043c-0.499,0-0.882-0.17-1.153-0.51
					c-0.271-0.34-0.407-0.751-0.407-1.232c0-0.786,0.348-1.513,1.044-2.177l-1.686,1.134v-0.412
					c0.902-0.611,1.808-1.226,2.717-1.844c1.397-0.855,2.437-1.284,3.117-1.284C174.556,11.149,174.917,11.475,174.917,12.124z"/>
				<path fill="#E6E6E6" d="M183.819,14.69c-0.61,0.527-1.218,1.062-1.822,1.604c-0.968,0.787-1.711,1.181-2.222,1.181
					c-0.787,0-1.182-0.428-1.182-1.284c-0.291,0.275-0.646,0.551-1.065,0.825c-0.511,0.306-0.911,0.459-1.202,0.459
					c-0.429,0-0.773-0.172-1.033-0.516c-0.237-0.291-0.355-0.646-0.355-1.066c0-0.603,0.291-1.314,0.872-2.131l-1.306,0.928v-0.412
					c1.413-1.038,2.374-1.714,2.887-2.028c1.268-0.733,2.353-1.1,3.253-1.1c0.857,0,1.284,0.291,1.284,0.872l0.606-0.711h1.284
					l-3.988,4.653c-0.204,0.259-0.308,0.5-0.308,0.722c0,0.275,0.145,0.412,0.436,0.412c0.389,0,1.089-0.421,2.096-1.261
					c0.595-0.527,1.184-1.046,1.765-1.558V14.69z M181.516,11.974c0-0.305-0.179-0.458-0.538-0.458
					c-0.764,0-1.797,0.623-3.095,1.868c-1.298,1.246-1.948,2.261-1.948,3.049c0,0.389,0.172,0.584,0.516,0.584
					c0.556,0,1.541-0.712,2.95-2.137S181.516,12.486,181.516,11.974z"/>
				<path fill="#E6E6E6" d="M190.731,14.69c-0.635,0.542-1.266,1.097-1.892,1.662c-0.938,0.749-1.657,1.124-2.154,1.124
					c-0.787,0-1.18-0.34-1.18-1.02c0-0.443,0.47-1.187,1.41-2.235c0.635-0.641,1.275-1.298,1.924-1.971
					c-0.26,0.245-0.569,0.367-0.927,0.367c-0.405,0-0.678-0.088-0.814-0.264l-3.278,2.338v-0.412l3.072-2.177
					c-0.084-0.137-0.127-0.325-0.127-0.561c0-0.26,0.077-0.517,0.23-0.774c0.154-0.256,0.341-0.384,0.563-0.384
					c0.427,0,0.642,0.24,0.642,0.722c0,0.191-0.086,0.367-0.258,0.527s-0.258,0.275-0.258,0.343c0,0.169,0.122,0.253,0.366,0.253
					c0.42,0,0.99-0.306,1.707-0.917h0.976c-0.75,0.887-1.51,1.765-2.281,2.636c-1.345,1.604-2.016,2.49-2.016,2.658
					c0,0.329,0.143,0.493,0.434,0.493c0.375,0,1.047-0.401,2.018-1.203c0.619-0.55,1.232-1.089,1.845-1.616V14.69z"/>
				<path fill="#E6E6E6" d="M197.079,11.974c0,0.872-0.54,1.555-1.618,2.052c-0.846,0.389-1.761,0.585-2.737,0.585
					c-0.628,0.855-0.94,1.428-0.94,1.719c0,0.526,0.278,0.79,0.836,0.79c0.565,0,1.309-0.367,2.235-1.099
					c0.664-0.581,1.32-1.161,1.971-1.742v0.412c-1.047,0.933-1.716,1.513-2.007,1.742c-0.915,0.695-1.691,1.043-2.324,1.043
					c-0.473,0-0.85-0.17-1.123-0.51c-0.276-0.34-0.412-0.751-0.412-1.232c0-0.649,0.282-1.306,0.846-1.971l-1.076,0.928v-0.412
					c2.421-2.086,4.15-3.129,5.19-3.129C196.692,11.149,197.079,11.425,197.079,11.974z M196.724,11.895
					c0-0.252-0.181-0.378-0.54-0.378c-0.551,0-1.65,0.928-3.3,2.785c0.612,0,1.379-0.256,2.303-0.768
					C196.211,12.991,196.724,12.444,196.724,11.895z"/>
				<path fill="#E6E6E6" d="M214.335,3.472c0,1.077-0.71,2.162-2.131,3.254c-1.139,0.887-2.331,1.517-3.576,1.891
					c-1.022,1.283-2.048,2.556-3.07,3.816c-1.521,1.993-2.281,3.3-2.281,3.919c0,0.497,0.172,0.745,0.516,0.745
					c0.267,0,0.897-0.421,1.89-1.261c0.595-0.527,1.191-1.046,1.788-1.558v0.412c-0.612,0.542-1.227,1.089-1.845,1.639
					c-0.933,0.764-1.632,1.146-2.096,1.146c-0.222,0-0.439-0.091-0.655-0.27c-0.212-0.179-0.319-0.379-0.319-0.602
					c0-1.107,0.221-2.035,0.664-2.784c0.208-0.359,0.832-1.127,1.879-2.304l-3.461,3.174v-0.412l3.357-3.129
					c0.352-0.305,0.915-0.825,1.686-1.558c1.024-1.26,2.041-2.521,3.049-3.781c1.741-2.017,3.036-3.025,3.884-3.025
					C214.095,2.784,214.335,3.014,214.335,3.472z M213.923,3.609c0-0.259-0.126-0.389-0.377-0.389c-0.316,0-0.929,0.554-1.847,1.662
					l-2.737,3.254c0.985-0.328,2.009-0.908,3.07-1.741C213.293,5.386,213.923,4.457,213.923,3.609z"/>
				<path fill="#E6E6E6" d="M212.893,11.31c-0.796,0.917-1.605,1.837-2.432,2.762c-1.449,1.688-2.177,2.609-2.177,2.762
					c0,0.191,0.124,0.286,0.368,0.286c0.68,0,2.086-0.947,4.216-2.842v0.412c-1.94,1.856-3.422,2.785-4.444,2.785
					c-0.635,0-0.952-0.248-0.952-0.745c0-0.458,0.54-1.31,1.616-2.556c0.717-0.771,1.424-1.547,2.12-2.326
					c-1.603,1.107-2.85,2.055-3.736,2.842v-0.412c0.886-0.718,2.242-1.707,4.069-2.968H212.893z M213.431,9.591
					c0,0.581-0.256,0.872-0.768,0.872c-0.459,0-0.689-0.203-0.689-0.608c0-0.244,0.086-0.46,0.258-0.647
					c0.172-0.187,0.369-0.281,0.59-0.281C213.229,8.927,213.431,9.148,213.431,9.591z"/>
				<path fill="#E6E6E6" d="M222.599,14.69c-0.621,0.542-1.234,1.089-1.847,1.639c-0.94,0.764-1.63,1.146-2.073,1.146
					c-0.276,0-0.509-0.081-0.705-0.241s-0.292-0.37-0.292-0.63c0-0.443,0.588-1.304,1.765-2.583c1.176-1.28,1.765-2.023,1.765-2.229
					c0-0.184-0.104-0.275-0.308-0.275c-0.459,0-1.601,0.818-3.427,2.452c-1.605,1.452-2.704,2.544-3.3,3.277h-1.307
					c0.803-0.901,1.598-1.807,2.385-2.716c1.397-1.619,2.096-2.539,2.096-2.762c0-0.168-0.084-0.252-0.253-0.252
					c-0.344,0-1.069,0.458-2.177,1.376c-0.687,0.595-1.37,1.195-2.052,1.799v-0.412c0.703-0.634,1.41-1.256,2.12-1.868
					c1.026-0.84,1.818-1.261,2.385-1.261c0.565,0,0.846,0.256,0.846,0.768c0,0.29-0.197,0.702-0.595,1.237
					c-0.305,0.374-0.61,0.749-0.916,1.123c0.579-0.527,1.169-1.046,1.765-1.558c0.87-0.756,1.487-1.219,1.845-1.386
					c0.222-0.1,0.484-0.149,0.789-0.149c0.597,0,0.895,0.298,0.895,0.893c0,0.429-0.572,1.238-1.713,2.43
					c-1.142,1.192-1.714,1.959-1.714,2.303c0,0.191,0.118,0.287,0.355,0.287c0.262,0,0.895-0.421,1.905-1.261
					c0.595-0.527,1.184-1.046,1.765-1.558V14.69z"/>
				<path fill="#E6E6E6" d="M228.948,11.974c0,0.872-0.54,1.555-1.618,2.052c-0.846,0.389-1.761,0.585-2.737,0.585
					c-0.628,0.855-0.94,1.428-0.94,1.719c0,0.526,0.278,0.79,0.836,0.79c0.565,0,1.309-0.367,2.235-1.099
					c0.664-0.581,1.32-1.161,1.971-1.742v0.412c-1.047,0.933-1.716,1.513-2.007,1.742c-0.915,0.695-1.691,1.043-2.324,1.043
					c-0.473,0-0.85-0.17-1.123-0.51c-0.276-0.34-0.412-0.751-0.412-1.232c0-0.649,0.282-1.306,0.846-1.971l-1.076,0.928v-0.412
					c2.421-2.086,4.15-3.129,5.19-3.129C228.56,11.149,228.948,11.425,228.948,11.974z M228.593,11.895
					c0-0.252-0.181-0.378-0.54-0.378c-0.551,0-1.65,0.928-3.3,2.785c0.612,0,1.379-0.256,2.303-0.768
					C228.08,12.991,228.593,12.444,228.593,11.895z"/>
			</g>
		</g>
	</g>
</g>
<g id="base_x5F_layer">
</g>
</svg>
