<?xml version="1.0" encoding="utf-8"?>
<!-- Generator: Adobe Illustrator 17.0.1, SVG Export Plug-In . SVG Version: 6.00 Build 0)  -->
<!DOCTYPE svg PUBLIC "-//W3C//DTD SVG 1.1//EN" "http://www.w3.org/Graphics/SVG/1.1/DTD/svg11.dtd">
<svg version="1.1" xmlns="http://www.w3.org/2000/svg" xmlns:xlink="http://www.w3.org/1999/xlink" x="0px" y="0px"
	 width="35.596px" height="52.443px" viewBox="0 0 35.596 52.443" enable-background="new 0 0 35.596 52.443" xml:space="preserve">
<g id="HP">
	<g>
		<path fill="#B3B3B3" d="M17.798,0C7.984,0,0,7.984,0,17.798c0,3.944,2.322,9.941,7.307,18.875
			c3.402,6.095,6.788,11.244,6.931,11.461l2.447,3.71c0.247,0.374,0.665,0.599,1.113,0.599s0.866-0.225,1.113-0.599l2.447-3.71
			c0.141-0.214,3.503-5.319,6.931-11.461c4.985-8.933,7.307-14.931,7.307-18.875C35.596,7.984,27.612,0,17.798,0z M25.96,35.373
			c-3.38,6.057-6.689,11.081-6.828,11.292l-1.334,2.023l-1.334-2.022c-0.14-0.213-3.474-5.282-6.828-11.293
			c-4.624-8.287-6.969-14.2-6.969-17.575c0-8.343,6.788-15.131,15.131-15.131s15.131,6.788,15.131,15.131
			C32.929,21.174,30.585,27.087,25.96,35.373z"/>
		<path fill="#B3B3B3" d="M17.798,7.819c-5.441,0-9.868,4.427-9.868,9.868s4.427,9.868,9.868,9.868s9.868-4.427,9.868-9.868
			S23.239,7.819,17.798,7.819z M17.798,24.888c-3.971,0-7.201-3.23-7.201-7.201s3.23-7.201,7.201-7.201s7.201,3.23,7.201,7.201
			S21.769,24.888,17.798,24.888z"/>
	</g>
</g>
<g id="base_x5F_layer">
</g>
</svg>
