<?xml version="1.0" encoding="utf-8"?>
<!-- Generator: Adobe Illustrator 17.0.1, SVG Export Plug-In . SVG Version: 6.00 Build 0)  -->
<!DOCTYPE svg PUBLIC "-//W3C//DTD SVG 1.1//EN" "http://www.w3.org/Graphics/SVG/1.1/DTD/svg11.dtd">
<svg version="1.1" xmlns="http://www.w3.org/2000/svg" xmlns:xlink="http://www.w3.org/1999/xlink" x="0px" y="0px"
	 width="50.561px" height="35.505px" viewBox="0 0 50.561 35.505" enable-background="new 0 0 50.561 35.505" xml:space="preserve">
<g id="HP">
	<path fill="#B3B3B3" d="M1.317,35.505h47.928c0.727,0,1.317-0.59,1.317-1.317V7.724V6.896V1.317C50.561,0.59,49.972,0,49.245,0
		H1.317C0.59,0,0,0.59,0,1.317v5.579v0.828v26.464C0,34.915,0.59,35.505,1.317,35.505z M47.928,32.871H2.634V9.019l22.062,10.933
		c0.368,0.183,0.801,0.183,1.169,0L47.928,9.019V32.871z M47.928,2.634v3.445L25.281,17.302L2.634,6.079V2.634H47.928z"/>
</g>
<g id="base_x5F_layer">
</g>
</svg>
