<?xml version="1.0" encoding="utf-8"?>
<!-- Generator: Adobe Illustrator 17.0.1, SVG Export Plug-In . SVG Version: 6.00 Build 0)  -->
<!DOCTYPE svg PUBLIC "-//W3C//DTD SVG 1.1//EN" "http://www.w3.org/Graphics/SVG/1.1/DTD/svg11.dtd">
<svg version="1.1" xmlns="http://www.w3.org/2000/svg" xmlns:xlink="http://www.w3.org/1999/xlink" x="0px" y="0px"
	 width="51.186px" height="51.07px" viewBox="0 0 51.186 51.07" enable-background="new 0 0 51.186 51.07" xml:space="preserve">
<g id="HP">
	<g>
		<path fill="#B3B3B3" d="M50.038,40.393l-7.905-7.906c-1.574-1.568-4.182-1.52-5.811,0.109l-3.982,3.982
			c-0.251-0.139-0.512-0.284-0.786-0.438c-2.515-1.393-5.957-3.303-9.579-6.928c-3.632-3.632-5.545-7.08-6.942-9.596
			c-0.148-0.267-0.289-0.524-0.429-0.768l2.673-2.669l1.314-1.316c1.632-1.632,1.677-4.239,0.106-5.811l-7.905-7.906
			C9.222-0.424,6.613-0.376,4.981,1.256L2.753,3.497l0.061,0.061C2.067,4.511,1.443,5.61,0.979,6.796
			C0.55,7.924,0.283,9.001,0.161,10.08c-1.043,8.653,2.911,16.562,13.642,27.294c14.834,14.833,26.788,13.712,27.304,13.657
			c1.124-0.134,2.2-0.402,3.294-0.827c1.175-0.459,2.274-1.082,3.226-1.827l0.049,0.042l2.257-2.21
			C51.561,44.576,51.608,41.969,50.038,40.393z M48.177,44.451l-0.995,0.993l-0.396,0.381c-0.624,0.603-1.704,1.45-3.28,2.067
			c-0.895,0.345-1.778,0.566-2.676,0.673c-0.113,0.011-11.357,0.97-25.273-12.945C3.725,23.788,1.829,16.97,2.624,10.366
			C2.723,9.491,2.943,8.61,3.294,7.69C3.916,6.104,4.762,5.025,5.361,4.4l1.375-1.389c0.663-0.665,1.696-0.715,2.302-0.109
			l7.905,7.905c0.605,0.607,0.557,1.64-0.107,2.307l-5.338,5.333l0.493,0.829c0.274,0.462,0.563,0.98,0.873,1.543
			c1.468,2.648,3.478,6.273,7.358,10.15c3.87,3.872,7.49,5.879,10.13,7.344c0.571,0.316,1.091,0.606,1.559,0.884l0.831,0.493
			l5.335-5.337c0.665-0.663,1.703-0.712,2.308-0.108l7.901,7.903C48.888,42.753,48.84,43.787,48.177,44.451z"/>
	</g>
</g>
<g id="base_x5F_layer">
</g>
</svg>
