<?xml version="1.0" encoding="utf-8"?>
<!-- Generator: Adobe Illustrator 17.0.1, SVG Export Plug-In . SVG Version: 6.00 Build 0)  -->
<!DOCTYPE svg PUBLIC "-//W3C//DTD SVG 1.1//EN" "http://www.w3.org/Graphics/SVG/1.1/DTD/svg11.dtd">
<svg version="1.1" xmlns="http://www.w3.org/2000/svg" xmlns:xlink="http://www.w3.org/1999/xlink" x="0px" y="0px" width="132px"
	 height="220px" viewBox="0 0 132 220" enable-background="new 0 0 132 220" xml:space="preserve">
<g id="HP">
	<path fill-rule="evenodd" clip-rule="evenodd" fill="#59843B" d="M132,66c0,36.451-66,154-66,154S0,102.451,0,66S29.549,0,66,0
		S132,29.549,132,66z"/>
	<g>
		<g>
			<path fill-rule="evenodd" clip-rule="evenodd" fill="#FFFFFF" d="M73.373,64.4c6.366,13.017,10.851,26.183,25.284,28.509
				c3.818-1.243,7.352-3.256,10.614-5.602c-6.475-0.207-12.811-1.498-18.159-5.48c-6.048-4.501-10.287-12.086-13.997-18.516
				C71.677,53.888,63.75,45.747,53,42.786c-0.761-0.209-1.522-0.386-2.284-0.537C62.533,44.71,68.404,54.244,73.373,64.4z"/>
			<path fill-rule="evenodd" clip-rule="evenodd" fill="#FFFFFF" d="M69.226,66.099C61.434,49.768,53.43,43.646,35.378,42.73
				c-3.25,0.794-6.427,1.981-9.482,3.457c1.888-0.182,3.735-0.218,5.747,0.068c4.361,0.622,8.433,2.6,12.126,4.926l0.045,0.03
				l0.041,0.034c6.097,4.737,10.201,10.921,14.111,17.461C61.456,74.539,64.9,80.922,69.76,85.74
				c1.838,1.825,3.865,3.403,6.131,4.666c6.903,3.53,14.139,4.974,21.712,2.827c0.334-0.095,0.665-0.198,0.995-0.304
				C81.666,93.868,76.201,80.71,69.226,66.099z"/>
		</g>
	</g>
</g>
<g id="base_x5F_layer">
</g>
</svg>
